<svg id="svg" version="1.1" xmlns="http://www.w3.org/2000/svg" xmlns:xlink="http://www.w3.org/1999/xlink" width="400" height="400" viewBox="0, 0, 400,400"><g id="svgg"><path id="path1" d="M234.241 37.432 C 233.880 37.502,233.683 37.720,233.805 37.916 C 233.926 38.112,233.752 38.168,233.419 38.040 C 233.055 37.900,232.810 38.019,232.807 38.337 C 232.802 38.777,232.743 38.776,232.460 38.329 C 232.244 37.989,231.923 37.913,231.587 38.124 C 231.294 38.307,230.703 38.410,230.273 38.352 C 229.699 38.274,229.630 38.340,230.013 38.600 C 230.416 38.874,230.349 39.003,229.720 39.167 C 229.272 39.284,228.990 39.243,229.094 39.074 C 229.391 38.593,226.905 39.557,225.345 40.527 C 224.567 41.011,223.644 41.406,223.294 41.406 C 222.943 41.406,222.656 41.582,222.656 41.797 C 222.656 42.012,222.437 42.144,222.168 42.090 C 221.899 42.036,221.722 42.206,221.773 42.466 C 221.824 42.730,221.621 42.847,221.314 42.729 C 220.998 42.608,220.570 42.877,220.311 43.363 C 220.062 43.827,219.766 44.115,219.653 44.002 C 219.395 43.744,218.698 44.291,216.613 46.387 C 215.704 47.300,214.740 48.047,214.470 48.047 C 214.194 48.047,214.077 48.303,214.204 48.633 C 214.327 48.955,214.235 49.219,213.997 49.219 C 213.623 49.219,212.720 50.102,211.302 51.855 C 211.084 52.124,211.045 52.349,211.215 52.356 C 211.385 52.362,211.212 52.549,210.832 52.770 C 210.451 52.992,210.242 53.338,210.366 53.540 C 210.491 53.741,210.407 53.906,210.179 53.906 C 209.952 53.906,209.766 54.161,209.766 54.473 C 209.766 54.784,209.546 55.180,209.277 55.352 C 208.535 55.827,207.599 57.584,208.272 57.238 C 208.556 57.093,208.484 57.223,208.112 57.529 C 207.739 57.835,207.523 58.174,207.633 58.284 C 207.742 58.393,207.563 58.705,207.236 58.977 C 206.909 59.248,206.641 59.722,206.641 60.028 C 206.641 60.335,206.362 61.124,206.022 61.781 C 205.682 62.439,205.595 62.859,205.827 62.715 C 206.060 62.572,206.250 62.640,206.250 62.868 C 206.250 63.095,206.104 63.281,205.925 63.281 C 205.746 63.281,205.315 64.451,204.968 65.882 C 204.317 68.563,204.088 78.516,204.677 78.516 C 204.838 78.516,204.887 78.946,204.787 79.473 C 204.565 80.635,206.172 87.061,206.900 87.921 C 207.187 88.261,207.422 88.925,207.422 89.398 C 207.422 89.872,207.686 90.360,208.008 90.484 C 208.330 90.607,208.594 91.029,208.594 91.420 C 208.594 91.811,208.849 92.387,209.161 92.699 C 209.473 93.011,209.620 93.375,209.487 93.508 C 209.354 93.641,209.450 93.750,209.701 93.750 C 209.951 93.750,210.156 94.024,210.156 94.359 C 210.156 94.694,210.332 94.859,210.547 94.727 C 210.762 94.594,210.938 94.684,210.938 94.927 C 210.938 95.170,211.157 95.613,211.426 95.913 C 212.606 97.229,212.829 97.587,212.607 97.810 C 212.476 97.940,212.673 98.047,213.044 98.047 C 213.415 98.047,213.609 98.224,213.475 98.440 C 213.341 98.657,213.506 98.939,213.840 99.067 C 214.175 99.196,214.353 99.456,214.235 99.646 C 214.118 99.836,214.295 99.886,214.628 99.758 C 215.058 99.594,215.234 99.765,215.234 100.349 C 215.234 100.846,215.484 101.172,215.866 101.172 C 216.213 101.172,217.180 101.897,218.014 102.783 C 218.849 103.669,219.531 104.257,219.531 104.090 C 219.531 103.923,219.857 104.162,220.255 104.621 C 220.652 105.079,221.092 105.341,221.231 105.201 C 221.370 105.062,221.487 105.197,221.490 105.501 C 221.495 105.957,221.563 105.951,221.875 105.469 C 222.196 104.972,222.255 104.990,222.260 105.589 C 222.263 105.978,222.441 106.187,222.656 106.055 C 222.871 105.922,223.047 106.029,223.047 106.292 C 223.047 106.555,223.161 106.656,223.301 106.516 C 223.441 106.377,223.787 106.567,224.070 106.940 C 224.382 107.350,224.589 107.426,224.597 107.133 C 224.605 106.802,224.853 106.856,225.374 107.303 C 225.794 107.663,226.375 107.992,226.665 108.034 C 226.955 108.077,227.942 108.474,228.857 108.916 C 229.773 109.359,230.803 109.613,231.146 109.481 C 231.531 109.334,231.671 109.401,231.512 109.658 C 231.361 109.902,231.615 110.083,232.131 110.096 C 233.454 110.130,234.721 110.372,234.992 110.643 C 235.125 110.776,235.935 110.800,236.792 110.697 C 237.821 110.573,238.265 110.648,238.098 110.919 C 237.958 111.144,238.119 111.328,238.454 111.328 C 238.788 111.328,239.063 111.152,239.063 110.938 C 239.063 110.378,242.439 110.454,243.377 111.035 C 244.016 111.431,244.227 111.424,244.494 110.993 C 244.709 110.648,245.130 110.560,245.703 110.742 C 246.247 110.915,246.694 110.840,246.875 110.547 C 247.036 110.287,247.937 110.019,248.877 109.953 C 249.817 109.886,250.850 109.756,251.172 109.664 C 251.969 109.434,253.929 108.626,254.414 108.326 C 254.650 108.180,254.694 108.302,254.523 108.631 C 254.366 108.933,254.602 108.765,255.048 108.258 C 255.494 107.750,255.859 107.514,255.859 107.733 C 255.859 108.296,257.446 107.813,257.691 107.175 C 257.803 106.883,258.025 106.726,258.185 106.825 C 258.345 106.923,258.846 106.659,259.300 106.236 C 259.753 105.814,260.386 105.469,260.706 105.469 C 261.027 105.469,261.430 105.249,261.602 104.980 C 261.773 104.711,262.391 104.245,262.975 103.944 C 263.558 103.644,263.929 103.226,263.799 103.015 C 263.669 102.805,263.792 102.709,264.071 102.802 C 264.544 102.960,267.430 100.287,269.206 98.047 C 269.631 97.510,269.864 97.334,269.722 97.656 C 269.580 97.979,269.826 97.803,270.270 97.266 C 270.713 96.729,271.080 96.069,271.085 95.801 C 271.090 95.532,271.270 95.313,271.484 95.313 C 271.699 95.313,271.875 95.074,271.875 94.784 C 271.875 94.493,272.329 93.765,272.883 93.167 C 273.492 92.510,273.816 91.791,273.701 91.352 C 273.582 90.897,273.668 90.721,273.931 90.884 C 274.194 91.047,274.261 90.908,274.110 90.514 C 273.932 90.050,274.034 89.947,274.498 90.125 C 274.928 90.290,275.035 90.217,274.835 89.893 C 274.674 89.632,274.821 88.993,275.162 88.473 C 275.502 87.953,275.781 87.205,275.781 86.811 C 275.781 86.416,275.967 85.908,276.194 85.681 C 276.422 85.453,276.691 84.594,276.793 83.772 C 276.895 82.949,277.170 82.045,277.404 81.763 C 277.716 81.387,277.686 81.073,277.294 80.589 C 276.836 80.025,276.839 79.977,277.312 80.263 C 277.728 80.513,277.805 80.434,277.618 79.947 C 277.481 79.589,277.511 79.297,277.686 79.297 C 278.156 79.297,278.094 68.299,277.620 67.386 C 277.397 66.958,277.148 65.991,277.066 65.238 C 276.984 64.484,276.768 63.815,276.586 63.751 C 276.404 63.687,276.345 63.291,276.454 62.872 C 276.568 62.435,276.458 62.109,276.194 62.109 C 275.942 62.109,275.844 61.934,275.977 61.719 C 276.109 61.504,276.032 61.328,275.804 61.328 C 275.577 61.328,275.391 61.142,275.391 60.914 C 275.391 60.687,275.610 60.612,275.879 60.748 C 276.147 60.884,276.042 60.730,275.644 60.407 C 275.247 60.083,275.030 59.642,275.163 59.428 C 275.295 59.214,275.222 58.926,275.000 58.789 C 274.778 58.652,274.698 58.376,274.821 58.176 C 274.945 57.976,274.850 57.813,274.609 57.813 C 274.369 57.813,274.281 57.637,274.414 57.422 C 274.547 57.207,274.469 57.031,274.242 57.031 C 274.014 57.031,273.828 56.686,273.828 56.264 C 273.828 55.842,273.477 55.308,273.047 55.078 C 272.617 54.848,272.266 54.403,272.266 54.088 C 272.266 53.773,272.090 53.516,271.875 53.516 C 271.660 53.516,271.505 53.384,271.531 53.223 C 271.654 52.444,271.445 51.931,271.094 52.148 C 270.879 52.281,270.703 52.105,270.703 51.758 C 270.703 51.380,270.522 51.238,270.252 51.404 C 269.988 51.568,269.907 51.513,270.056 51.271 C 270.196 51.044,269.169 49.687,267.773 48.256 C 266.377 46.825,265.228 45.885,265.221 46.167 C 265.213 46.449,264.993 46.311,264.732 45.861 C 264.189 44.924,261.328 42.346,261.328 42.794 C 261.328 42.956,261.021 42.811,260.645 42.471 C 260.269 42.131,259.873 41.866,259.766 41.882 C 259.158 41.974,257.836 41.294,258.025 40.988 C 258.148 40.788,257.909 40.625,257.493 40.625 C 257.077 40.625,256.517 40.361,256.250 40.039 C 255.983 39.717,255.381 39.453,254.913 39.453 C 254.445 39.453,253.896 39.288,253.691 39.087 C 253.487 38.885,252.881 38.661,252.344 38.588 C 251.807 38.516,251.137 38.313,250.857 38.137 C 250.576 37.961,249.873 37.927,249.294 38.061 C 248.462 38.254,248.365 38.214,248.828 37.869 C 249.307 37.512,249.253 37.467,248.535 37.625 C 248.052 37.731,247.656 37.702,247.656 37.561 C 247.656 37.306,235.494 37.189,234.241 37.432 M258.816 109.028 C 258.903 109.168,258.415 109.239,257.731 109.186 C 257.048 109.132,255.951 109.305,255.295 109.571 C 254.639 109.837,253.854 109.966,253.551 109.857 C 253.200 109.731,253.076 109.855,253.208 110.201 C 253.343 110.550,253.123 110.760,252.587 110.792 C 251.175 110.877,249.874 111.290,249.594 111.743 C 249.447 111.981,249.171 112.163,248.980 112.147 C 248.126 112.077,247.265 112.609,247.260 113.210 C 247.255 113.742,247.188 113.763,246.908 113.322 C 246.629 112.881,246.462 112.937,246.039 113.614 C 245.751 114.076,245.215 114.453,244.847 114.453 C 244.480 114.453,244.000 114.761,243.781 115.137 C 243.562 115.513,243.378 115.657,243.371 115.457 C 243.365 115.257,242.848 115.667,242.222 116.367 C 241.597 117.067,240.938 117.644,240.758 117.648 C 240.577 117.653,240.474 117.814,240.527 118.008 C 240.581 118.201,240.405 118.362,240.137 118.366 C 239.580 118.374,238.345 119.614,237.326 121.188 C 236.945 121.777,236.503 122.179,236.344 122.080 C 236.042 121.893,235.257 123.211,235.070 124.219 C 235.010 124.541,234.642 124.935,234.252 125.094 C 233.862 125.254,233.642 125.543,233.762 125.737 C 233.882 125.931,233.717 126.191,233.396 126.314 C 233.075 126.437,232.813 126.974,232.813 127.507 C 232.813 128.041,232.505 128.656,232.129 128.875 C 231.699 129.126,231.637 129.278,231.961 129.285 C 232.350 129.294,232.326 129.449,231.864 129.911 C 231.291 130.483,231.093 131.034,231.204 131.738 C 231.229 131.899,231.090 132.031,230.894 132.031 C 230.698 132.031,230.585 132.339,230.643 132.715 C 230.701 133.091,230.568 133.515,230.347 133.658 C 230.126 133.800,229.931 134.794,229.914 135.866 C 229.897 136.938,229.757 137.737,229.602 137.642 C 229.448 137.547,229.324 138.311,229.326 139.340 C 229.330 141.072,229.111 143.164,228.927 143.164 C 228.884 143.164,228.772 143.604,228.678 144.141 C 228.585 144.678,228.311 145.606,228.069 146.204 C 227.827 146.802,227.741 147.403,227.878 147.540 C 228.016 147.677,227.859 148.199,227.531 148.699 C 227.203 149.200,227.054 149.609,227.200 149.609 C 227.346 149.609,227.174 149.931,226.818 150.325 C 226.461 150.718,226.287 151.156,226.429 151.299 C 226.571 151.441,226.423 151.866,226.099 152.244 C 225.199 153.291,224.797 154.078,225.330 153.748 C 225.578 153.595,225.781 153.656,225.781 153.883 C 225.781 154.111,225.649 154.298,225.488 154.299 C 225.032 154.303,223.798 156.667,224.045 157.066 C 224.166 157.262,223.980 157.422,223.633 157.422 C 223.285 157.422,223.109 157.598,223.242 157.812 C 223.375 158.027,223.254 158.206,222.972 158.209 C 222.572 158.214,222.578 158.289,223.001 158.557 C 223.425 158.825,223.360 158.956,222.702 159.165 C 222.241 159.311,221.965 159.596,222.089 159.797 C 222.214 159.997,222.037 160.268,221.698 160.399 C 221.358 160.529,221.127 160.841,221.184 161.092 C 221.287 161.539,220.937 161.980,217.773 165.395 C 215.388 167.969,214.653 168.915,214.763 169.267 C 214.818 169.444,214.706 169.492,214.513 169.373 C 214.093 169.113,212.263 170.641,212.402 171.136 C 212.456 171.328,212.368 171.464,212.207 171.438 C 211.400 171.311,210.967 171.557,210.740 172.271 C 210.603 172.704,210.328 172.957,210.128 172.834 C 209.929 172.711,209.766 172.793,209.766 173.016 C 209.766 173.240,209.326 173.533,208.789 173.668 C 208.252 173.803,207.813 174.065,207.813 174.252 C 207.813 174.700,206.089 175.817,205.196 175.948 C 204.809 176.005,204.492 176.283,204.492 176.567 C 204.492 176.851,204.248 177.165,203.950 177.264 C 203.598 177.381,203.512 177.276,203.704 176.965 C 204.118 176.294,202.444 177.172,201.270 178.242 C 200.786 178.682,200.391 178.902,200.391 178.731 C 200.391 178.560,200.135 178.632,199.822 178.892 C 199.509 179.152,199.042 179.234,198.785 179.075 C 198.480 178.886,198.419 178.951,198.612 179.263 C 198.810 179.584,198.671 179.699,198.184 179.616 C 197.786 179.548,197.495 179.682,197.536 179.914 C 197.578 180.145,197.226 180.301,196.755 180.259 C 196.284 180.218,195.072 180.491,194.063 180.867 C 193.053 181.243,192.135 181.458,192.022 181.345 C 191.908 181.231,191.576 181.338,191.282 181.582 C 190.989 181.825,190.633 181.909,190.491 181.767 C 190.350 181.626,190.234 181.715,190.234 181.966 C 190.234 182.217,190.103 182.401,189.941 182.376 C 189.780 182.350,189.561 182.359,189.453 182.394 C 189.346 182.430,188.319 182.541,187.172 182.641 C 186.024 182.741,184.794 182.977,184.437 183.165 C 184.081 183.353,182.686 183.449,181.338 183.377 C 179.990 183.306,178.972 183.384,179.075 183.551 C 179.179 183.719,178.480 183.737,177.522 183.591 C 176.565 183.446,175.781 183.483,175.781 183.673 C 175.781 183.864,175.147 183.901,174.371 183.755 C 173.493 183.591,172.861 183.652,172.697 183.919 C 172.551 184.154,171.736 184.433,170.884 184.538 C 169.949 184.654,169.068 185.059,168.660 185.562 C 168.079 186.278,167.529 186.547,166.354 186.689 C 166.218 186.705,166.010 187.088,165.892 187.539 C 165.774 187.991,165.534 188.272,165.358 188.165 C 165.183 188.059,164.701 188.421,164.289 188.972 C 163.876 189.522,163.774 189.827,164.063 189.648 C 164.351 189.470,164.249 189.787,163.836 190.353 C 163.424 190.919,162.944 191.387,162.770 191.394 C 162.596 191.401,162.563 191.582,162.695 191.797 C 162.828 192.012,162.740 192.188,162.500 192.188 C 162.260 192.188,162.179 192.375,162.321 192.604 C 162.462 192.833,162.341 192.988,162.051 192.949 C 160.867 192.786,160.122 192.988,160.377 193.401 C 160.557 193.692,160.373 193.748,159.815 193.570 C 159.322 193.414,158.984 193.476,158.984 193.724 C 158.984 193.953,158.853 194.103,158.691 194.058 C 158.530 194.012,157.982 194.205,157.472 194.487 C 156.809 194.855,156.629 194.867,156.837 194.530 C 156.999 194.268,156.716 194.329,156.200 194.667 C 155.691 195.001,155.142 195.283,154.980 195.293 C 154.819 195.304,154.600 195.334,154.492 195.361 C 154.385 195.388,154.121 195.454,153.906 195.508 C 153.691 195.562,153.329 195.627,153.102 195.654 C 152.874 195.681,152.791 195.870,152.917 196.073 C 153.043 196.277,152.790 196.375,152.354 196.291 C 151.919 196.207,151.563 196.325,151.563 196.552 C 151.562 196.780,151.209 196.874,150.776 196.760 C 150.244 196.621,149.851 196.814,149.562 197.354 C 149.219 197.995,149.067 198.046,148.792 197.611 C 148.522 197.184,148.448 197.179,148.443 197.585 C 148.439 197.931,148.166 198.013,147.607 197.836 C 147.088 197.671,146.869 197.721,147.022 197.969 C 147.368 198.529,145.635 198.033,144.988 197.387 C 144.702 197.101,144.315 196.962,144.129 197.078 C 143.942 197.193,143.602 196.938,143.373 196.510 C 143.127 196.051,142.719 195.823,142.377 195.955 C 142.058 196.077,141.797 195.983,141.797 195.745 C 141.797 195.507,141.533 195.313,141.211 195.313 C 140.889 195.313,140.625 195.126,140.625 194.899 C 140.625 194.671,140.468 194.582,140.275 194.701 C 140.083 194.820,139.831 194.671,139.716 194.371 C 139.600 194.070,138.961 193.704,138.295 193.558 C 137.628 193.411,136.520 192.777,135.831 192.148 C 135.142 191.519,134.362 191.087,134.096 191.189 C 133.831 191.291,133.478 191.145,133.311 190.866 C 132.715 189.867,130.818 188.888,130.494 189.412 C 130.330 189.678,129.894 189.940,129.527 189.994 C 129.159 190.048,128.474 190.519,128.003 191.042 C 127.533 191.565,126.943 192.031,126.692 192.079 C 126.440 192.127,125.747 192.619,125.150 193.171 C 124.554 193.724,123.460 194.464,122.720 194.815 C 121.980 195.166,121.288 195.783,121.183 196.186 C 121.064 196.639,120.770 196.834,120.413 196.697 C 120.025 196.549,119.905 196.659,120.049 197.034 C 120.275 197.623,119.315 198.201,118.719 197.833 C 118.526 197.713,118.484 197.917,118.626 198.286 C 118.786 198.705,118.729 198.861,118.474 198.703 C 118.249 198.564,117.472 198.888,116.747 199.422 C 116.023 199.956,115.112 200.503,114.724 200.638 C 114.333 200.774,114.110 201.123,114.223 201.419 C 114.362 201.781,114.122 201.953,113.477 201.953 C 112.788 201.953,112.587 202.116,112.751 202.543 C 112.913 202.965,112.799 203.065,112.351 202.894 C 111.971 202.747,111.631 202.899,111.485 203.280 C 111.353 203.624,111.027 203.906,110.761 203.906 C 110.495 203.906,109.767 204.345,109.143 204.882 C 108.519 205.419,107.882 205.859,107.728 205.859 C 107.575 205.859,106.944 206.352,106.328 206.955 C 105.711 207.558,104.978 207.974,104.698 207.881 C 104.396 207.780,104.299 207.891,104.461 208.152 C 104.620 208.410,104.475 208.594,104.112 208.594 C 103.771 208.594,103.390 208.857,103.266 209.180 C 103.143 209.502,102.815 209.766,102.539 209.766 C 102.263 209.766,101.926 210.054,101.790 210.407 C 101.655 210.760,101.442 210.947,101.316 210.822 C 101.191 210.696,100.888 210.763,100.642 210.969 C 100.396 211.175,99.668 211.787,99.023 212.328 C 98.379 212.870,97.282 213.589,96.585 213.926 C 95.889 214.263,95.407 214.680,95.514 214.853 C 95.621 215.026,95.536 215.227,95.326 215.299 C 95.116 215.371,94.865 215.869,94.767 216.406 C 94.669 216.943,94.555 217.471,94.514 217.578 C 94.473 217.686,94.464 217.918,94.495 218.095 C 94.525 218.273,94.377 218.310,94.165 218.179 C 93.791 217.948,91.950 220.994,92.109 221.582 C 92.152 221.743,91.924 221.875,91.602 221.875 C 91.279 221.875,91.036 222.007,91.062 222.168 C 91.197 223.024,90.970 223.846,90.653 223.650 C 90.454 223.527,90.166 223.824,90.015 224.311 C 89.863 224.797,89.575 225.301,89.375 225.430 C 89.174 225.559,88.952 225.910,88.881 226.211 C 88.529 227.701,88.155 228.516,87.822 228.516 C 87.620 228.516,87.543 228.660,87.652 228.837 C 87.761 229.013,87.503 229.455,87.079 229.819 C 86.654 230.182,86.201 231.005,86.073 231.646 C 85.945 232.288,85.657 232.813,85.433 232.813 C 85.209 232.813,85.133 232.919,85.263 233.050 C 85.394 233.180,85.072 233.750,84.547 234.315 C 83.662 235.270,83.538 235.522,83.627 236.187 C 83.645 236.324,83.438 236.574,83.166 236.741 C 82.895 236.909,82.628 237.351,82.573 237.723 C 82.518 238.094,82.311 238.504,82.113 238.633 C 81.914 238.762,81.799 239.176,81.857 239.553 C 81.915 239.930,81.802 240.139,81.606 240.018 C 81.410 239.897,81.250 239.996,81.250 240.239 C 81.250 240.482,80.985 240.946,80.660 241.270 C 80.336 241.595,80.188 242.049,80.330 242.279 C 80.474 242.511,80.408 242.587,80.184 242.448 C 79.961 242.310,79.563 242.717,79.300 243.351 C 79.037 243.986,78.577 244.708,78.278 244.957 C 77.979 245.205,77.734 245.717,77.734 246.094 C 77.734 246.471,77.471 246.998,77.148 247.266 C 76.826 247.533,76.563 248.092,76.562 248.508 C 76.562 248.924,76.387 249.156,76.172 249.023 C 75.957 248.891,75.781 248.998,75.781 249.263 C 75.781 249.527,75.490 250.065,75.135 250.458 C 74.620 251.027,74.600 251.174,75.037 251.184 C 75.425 251.192,75.386 251.312,74.902 251.594 C 74.526 251.813,74.219 252.302,74.219 252.680 C 74.219 253.059,73.883 253.729,73.473 254.169 C 73.063 254.609,72.381 255.685,71.959 256.560 C 71.536 257.434,70.819 258.750,70.366 259.484 C 69.913 260.217,69.656 260.933,69.797 261.073 C 69.937 261.213,69.759 261.328,69.401 261.328 C 69.014 261.328,68.750 261.640,68.750 262.096 C 68.750 262.923,67.415 263.859,66.789 263.472 C 66.578 263.342,66.406 263.432,66.406 263.672 C 66.406 263.912,66.273 264.026,66.109 263.925 C 65.946 263.824,65.199 264.017,64.449 264.354 C 63.699 264.690,62.945 264.935,62.772 264.898 C 62.599 264.860,62.191 265.097,61.865 265.423 C 61.539 265.749,60.944 266.016,60.542 266.016 C 60.140 266.016,59.701 266.194,59.566 266.413 C 59.431 266.631,59.176 266.720,58.998 266.610 C 58.821 266.500,58.567 266.693,58.435 267.038 C 58.241 267.544,58.082 267.573,57.617 267.188 C 57.155 266.804,56.996 266.825,56.816 267.295 C 56.692 267.617,56.034 267.993,55.353 268.129 C 53.167 268.566,49.335 270.727,48.803 271.823 C 47.704 274.083,48.174 279.297,49.477 279.297 C 49.764 279.297,50.000 279.483,50.000 279.711 C 50.000 279.938,49.797 279.999,49.549 279.846 C 49.284 279.682,49.204 279.737,49.354 279.981 C 49.495 280.209,50.005 280.309,50.489 280.203 C 51.195 280.048,51.252 280.093,50.781 280.429 C 50.275 280.790,50.288 280.848,50.879 280.853 C 51.255 280.857,51.565 281.079,51.568 281.348 C 51.572 281.673,51.701 281.641,51.953 281.250 C 52.202 280.864,52.334 280.830,52.338 281.149 C 52.342 281.502,53.033 281.590,54.871 281.472 C 57.414 281.309,58.356 281.032,58.050 280.538 C 57.960 280.391,58.440 280.271,59.118 280.272 C 59.862 280.273,60.316 280.089,60.262 279.809 C 60.210 279.539,60.496 279.407,60.945 279.494 C 61.371 279.576,61.719 279.467,61.719 279.251 C 61.719 279.036,61.880 278.960,62.078 279.082 C 62.275 279.204,62.729 279.012,63.085 278.656 C 63.442 278.299,64.235 278.022,64.849 278.040 C 65.462 278.057,66.173 277.820,66.429 277.512 C 66.684 277.205,67.321 276.953,67.844 276.953 C 68.368 276.953,68.715 276.821,68.615 276.660 C 68.516 276.499,68.895 276.339,69.459 276.306 C 70.023 276.272,70.548 276.051,70.627 275.815 C 70.705 275.579,70.931 275.485,71.127 275.607 C 71.324 275.728,71.484 275.612,71.484 275.349 C 71.484 275.085,71.595 274.981,71.731 275.116 C 71.867 275.252,72.279 275.202,72.647 275.005 C 73.643 274.472,75.443 274.208,75.180 274.634 C 74.955 274.999,75.501 275.158,76.504 275.020 C 76.806 274.979,76.915 275.137,76.758 275.391 C 76.596 275.652,76.820 275.922,77.304 276.048 C 77.756 276.166,78.125 276.437,78.125 276.650 C 78.125 276.863,78.362 276.946,78.652 276.834 C 78.942 276.723,79.668 277.052,80.266 277.565 C 80.863 278.079,81.505 278.404,81.692 278.289 C 81.878 278.173,82.031 278.227,82.031 278.408 C 82.031 278.775,84.355 280.254,84.950 280.266 C 85.367 280.274,85.405 281.299,85.044 282.813 C 84.501 285.088,84.342 286.785,84.692 286.569 C 84.894 286.444,84.846 286.962,84.586 287.720 C 84.325 288.478,84.143 289.610,84.180 290.236 C 84.217 290.861,84.111 291.289,83.944 291.186 C 83.777 291.083,83.631 291.310,83.618 291.691 C 83.574 293.000,83.280 295.509,83.069 296.387 C 82.940 296.924,83.039 297.268,83.323 297.272 C 83.620 297.275,83.588 297.405,83.234 297.629 C 82.746 297.938,82.589 298.772,82.294 302.637 C 82.257 303.120,82.110 303.516,81.968 303.516 C 81.825 303.516,81.795 304.062,81.900 304.729 C 82.007 305.408,81.934 305.846,81.736 305.723 C 81.539 305.601,81.403 306.294,81.432 307.269 C 81.460 308.241,81.331 309.130,81.145 309.245 C 80.959 309.360,80.909 309.722,81.035 310.050 C 81.161 310.378,81.041 310.921,80.768 311.257 C 80.359 311.763,80.369 311.811,80.822 311.538 C 81.231 311.292,81.283 311.347,81.028 311.756 C 80.619 312.412,80.440 313.081,80.252 314.648 C 79.943 317.236,79.724 318.601,79.469 319.531 C 78.641 322.550,79.380 329.297,80.539 329.297 C 80.741 329.297,80.813 329.447,80.700 329.630 C 80.586 329.813,80.765 330.297,81.096 330.704 C 81.427 331.112,81.585 331.182,81.445 330.859 C 81.292 330.504,81.419 330.551,81.769 330.980 C 82.244 331.561,84.968 333.203,85.457 333.203 C 85.532 333.203,85.461 332.983,85.300 332.715 C 85.067 332.327,85.129 332.325,85.598 332.706 C 86.290 333.265,89.037 333.268,89.746 332.710 C 90.079 332.448,90.234 332.476,90.234 332.799 C 90.234 333.060,90.777 332.816,91.439 332.259 C 92.102 331.701,92.785 331.332,92.957 331.438 C 93.130 331.545,93.367 331.265,93.484 330.816 C 93.620 330.297,93.871 330.107,94.175 330.294 C 94.454 330.467,94.552 330.427,94.410 330.198 C 94.277 329.982,94.520 329.428,94.951 328.965 C 95.458 328.421,95.556 328.123,95.230 328.119 C 94.868 328.115,94.853 328.032,95.176 327.826 C 95.423 327.668,95.726 326.904,95.849 326.128 C 95.972 325.351,96.253 324.241,96.474 323.661 C 96.986 322.314,96.978 322.156,96.418 322.502 C 96.093 322.703,96.055 322.568,96.284 322.037 C 96.461 321.626,96.623 320.647,96.643 319.862 C 96.663 319.077,96.812 318.516,96.973 318.616 C 97.134 318.715,97.280 318.566,97.298 318.285 C 97.316 318.004,97.403 317.334,97.491 316.797 C 97.579 316.260,97.728 315.029,97.821 314.063 C 97.915 313.096,98.167 311.736,98.381 311.040 C 98.633 310.221,98.637 309.693,98.390 309.541 C 98.155 309.395,98.196 309.080,98.499 308.715 C 99.123 307.963,99.287 306.943,98.727 307.289 C 98.447 307.462,98.404 307.299,98.599 306.802 C 98.761 306.391,99.029 305.216,99.194 304.191 C 99.901 299.818,100.084 301.486,100.159 312.988 C 100.176 315.728,100.334 317.969,100.509 317.969 C 100.684 317.969,100.708 318.161,100.563 318.397 C 100.417 318.632,100.531 319.258,100.814 319.788 C 101.203 320.514,101.222 320.924,100.892 321.452 C 100.419 322.209,100.534 324.689,101.111 326.208 C 101.496 327.220,101.563 327.506,101.563 328.148 C 101.562 328.376,101.765 328.436,102.013 328.283 C 102.288 328.114,102.359 328.176,102.195 328.441 C 101.726 329.199,104.636 331.543,105.762 331.315 C 106.030 331.260,106.250 331.379,106.250 331.578 C 106.250 331.777,106.689 332.024,107.227 332.127 C 107.764 332.230,108.203 332.141,108.203 331.929 C 108.203 331.712,108.442 331.743,108.753 332.002 C 109.193 332.367,111.185 332.376,111.621 332.015 C 111.675 331.970,111.865 331.912,112.044 331.885 C 112.845 331.765,116.016 329.481,116.016 329.024 C 116.016 328.744,116.191 328.516,116.406 328.516 C 116.621 328.516,116.797 328.252,116.797 327.930 C 116.797 327.607,116.962 327.344,117.163 327.344 C 117.565 327.344,117.588 327.142,117.603 323.438 C 117.629 316.716,117.452 311.468,117.164 310.466 C 116.952 309.725,116.982 309.443,117.254 309.612 C 117.523 309.778,117.558 309.548,117.358 308.936 C 117.191 308.425,117.087 307.519,117.128 306.921 C 117.168 306.324,117.005 305.467,116.765 305.019 C 116.458 304.445,116.455 304.281,116.754 304.466 C 117.054 304.651,117.115 303.940,116.960 302.072 C 116.839 300.610,116.747 297.058,116.756 294.178 C 116.766 291.298,116.603 288.185,116.396 287.259 C 116.021 285.584,116.484 283.594,117.250 283.594 C 117.431 283.594,117.543 283.462,117.501 283.301 C 117.378 282.835,118.038 281.078,118.432 280.824 C 118.628 280.697,118.816 280.233,118.849 279.793 C 118.883 279.352,119.114 279.071,119.364 279.167 C 119.845 279.351,120.452 277.942,120.318 276.953 C 120.274 276.631,120.369 276.496,120.530 276.654 C 120.828 276.948,121.842 275.315,122.074 274.165 C 122.259 273.252,123.158 271.734,123.730 271.367 C 123.999 271.196,124.219 270.826,124.219 270.547 C 124.219 270.267,124.653 269.221,125.184 268.222 C 125.715 267.223,126.040 266.406,125.905 266.406 C 125.770 266.406,125.951 266.084,126.307 265.691 C 126.664 265.298,126.841 264.862,126.703 264.724 C 126.564 264.585,126.739 264.361,127.090 264.226 C 127.442 264.091,127.633 263.823,127.514 263.631 C 127.395 263.439,127.494 263.281,127.734 263.281 C 127.975 263.281,128.074 263.124,127.955 262.932 C 127.836 262.739,128.020 262.474,128.363 262.342 C 128.706 262.211,128.892 261.853,128.775 261.549 C 128.658 261.244,128.804 260.794,129.100 260.548 C 129.395 260.303,129.753 259.575,129.895 258.931 C 130.036 258.287,130.399 257.665,130.701 257.549 C 131.003 257.433,131.250 257.006,131.250 256.599 C 131.250 256.192,131.436 255.859,131.664 255.859 C 131.891 255.859,131.969 255.684,131.836 255.469 C 131.703 255.254,131.825 255.075,132.106 255.072 C 132.520 255.067,132.518 255.003,132.096 254.736 C 131.700 254.485,131.770 254.354,132.390 254.192 C 132.939 254.049,133.128 253.776,132.969 253.360 C 132.826 252.987,132.980 252.646,133.356 252.501 C 133.699 252.370,133.883 252.105,133.764 251.912 C 133.645 251.720,133.706 251.563,133.899 251.563 C 134.381 251.563,135.065 249.956,134.939 249.121 C 134.881 248.745,135.048 248.438,135.308 248.438 C 135.568 248.438,136.003 247.822,136.275 247.070 C 136.547 246.318,136.944 245.703,137.158 245.703 C 137.371 245.703,137.446 245.542,137.324 245.344 C 137.202 245.146,137.379 244.708,137.717 244.370 C 138.055 244.032,138.222 243.579,138.088 243.362 C 137.954 243.146,138.027 242.969,138.251 242.969 C 138.474 242.969,138.767 242.529,138.902 241.992 C 139.037 241.455,139.348 241.013,139.593 241.010 C 139.870 241.006,139.842 240.879,139.518 240.673 C 139.099 240.407,139.118 240.297,139.616 240.106 C 139.956 239.975,140.234 239.599,140.234 239.270 C 140.234 238.941,140.439 238.672,140.690 238.672 C 140.941 238.672,141.031 238.557,140.891 238.418 C 140.752 238.278,140.942 237.913,141.315 237.607 C 141.728 237.268,141.764 237.165,141.406 237.343 C 140.972 237.559,140.997 237.432,141.504 236.853 C 141.880 236.423,142.187 235.801,142.187 235.471 C 142.187 235.141,142.539 234.424,142.969 233.878 C 143.398 233.332,143.750 232.693,143.750 232.458 C 143.750 232.223,144.102 231.680,144.531 231.250 C 144.961 230.820,145.213 230.469,145.091 230.469 C 144.969 230.469,145.204 229.985,145.613 229.395 C 146.385 228.280,146.914 227.152,147.103 226.211 C 147.164 225.910,147.424 225.534,147.680 225.376 C 147.937 225.217,148.043 224.919,147.915 224.712 C 147.788 224.506,148.018 223.978,148.427 223.538 C 148.837 223.099,149.065 222.633,148.935 222.503 C 148.805 222.372,148.922 222.266,149.195 222.266 C 149.477 222.266,149.595 222.012,149.468 221.680 C 149.344 221.357,149.414 221.094,149.622 221.094 C 149.830 221.094,150.000 220.820,150.000 220.485 C 150.000 220.124,150.184 219.989,150.451 220.154 C 150.718 220.320,150.796 220.262,150.643 220.014 C 150.500 219.783,150.640 219.337,150.954 219.023 C 151.268 218.709,151.416 218.344,151.283 218.211 C 151.150 218.078,151.247 217.969,151.497 217.969 C 151.748 217.969,151.953 217.628,151.953 217.211 C 151.953 216.794,152.141 216.336,152.370 216.194 C 152.600 216.053,152.690 215.682,152.570 215.370 C 152.451 215.058,152.506 214.898,152.694 215.014 C 152.882 215.131,153.128 214.875,153.240 214.447 C 153.376 213.926,153.650 213.748,154.070 213.909 C 154.415 214.042,154.915 213.975,155.181 213.761 C 155.447 213.547,156.235 213.249,156.934 213.100 C 157.632 212.951,158.203 212.667,158.203 212.469 C 158.203 212.271,158.709 212.109,159.327 212.109 C 159.945 212.109,160.670 211.846,160.938 211.523 C 161.205 211.201,161.915 210.938,162.515 210.938 C 163.116 210.938,163.668 210.754,163.743 210.530 C 163.818 210.305,164.316 210.098,164.850 210.070 C 165.383 210.041,166.053 209.841,166.338 209.624 C 166.688 209.358,166.942 209.361,167.120 209.635 C 167.451 210.144,169.238 211.131,169.629 211.020 C 169.790 210.975,169.922 211.124,169.922 211.351 C 169.922 211.579,170.098 211.656,170.313 211.523 C 170.527 211.391,170.703 211.439,170.703 211.631 C 170.703 211.822,170.923 211.999,171.191 212.024 C 178.802 212.719,178.019 212.702,183.789 212.301 C 186.367 212.122,189.136 211.961,189.941 211.945 C 190.747 211.928,191.407 211.826,191.407 211.719 C 191.407 211.611,192.242 211.478,193.262 211.422 C 195.319 211.309,195.973 211.193,196.954 210.767 C 197.320 210.608,197.803 210.591,198.028 210.731 C 198.253 210.870,198.438 210.841,198.438 210.668 C 198.439 210.494,199.082 210.305,199.869 210.249 C 200.655 210.193,201.567 209.929,201.896 209.663 C 202.392 209.262,202.435 209.280,202.148 209.766 C 201.860 210.255,201.903 210.270,202.411 209.859 C 202.746 209.588,203.790 209.259,204.732 209.128 C 206.871 208.830,208.309 208.299,208.061 207.899 C 207.958 207.731,208.343 207.617,208.917 207.645 C 209.491 207.674,210.063 207.541,210.188 207.350 C 210.313 207.159,210.879 206.919,211.447 206.816 C 212.015 206.713,212.968 206.444,213.564 206.217 C 214.160 205.990,214.708 205.829,214.782 205.858 C 214.855 205.887,215.136 205.609,215.406 205.240 C 215.676 204.870,216.100 204.693,216.347 204.846 C 216.594 204.999,216.797 204.928,216.797 204.688 C 216.797 204.447,216.961 204.352,217.161 204.476 C 217.361 204.599,217.636 204.519,217.773 204.297 C 217.911 204.075,218.188 203.995,218.389 204.120 C 218.591 204.244,218.865 204.061,218.998 203.713 C 219.132 203.365,219.480 203.172,219.772 203.284 C 220.064 203.396,220.261 203.274,220.210 203.013 C 220.159 202.752,220.601 202.483,221.191 202.415 C 221.886 202.336,222.268 202.059,222.272 201.634 C 222.277 201.077,222.333 201.064,222.641 201.552 C 222.953 202.044,223.042 202.031,223.262 201.456 C 223.404 201.087,223.678 200.884,223.872 201.004 C 224.066 201.123,224.330 200.947,224.459 200.611 C 224.588 200.275,224.982 199.994,225.335 199.988 C 225.986 199.975,227.781 198.828,227.149 198.828 C 226.960 198.828,227.193 198.468,227.666 198.027 C 228.139 197.586,228.699 197.333,228.911 197.464 C 229.123 197.595,229.297 197.516,229.297 197.289 C 229.297 197.061,229.566 196.875,229.895 196.875 C 230.224 196.875,230.594 196.611,230.718 196.289 C 230.842 195.967,231.188 195.703,231.487 195.703 C 231.786 195.703,232.031 195.341,232.031 194.899 C 232.031 194.456,232.207 194.203,232.422 194.336 C 232.637 194.469,232.813 194.391,232.813 194.164 C 232.813 193.936,232.948 193.794,233.114 193.848 C 233.537 193.985,237.109 190.356,237.109 189.789 C 237.109 189.533,237.212 189.425,237.337 189.551 C 237.722 189.936,239.108 188.284,238.824 187.779 C 238.636 187.444,238.715 187.451,239.092 187.802 C 239.408 188.095,239.578 188.874,239.507 189.701 C 239.433 190.557,239.537 191.010,239.774 190.864 C 240.007 190.720,240.074 190.960,239.941 191.467 C 239.800 192.007,239.870 192.217,240.136 192.053 C 240.398 191.891,240.476 192.086,240.347 192.580 C 240.234 193.011,240.341 193.603,240.584 193.896 C 240.827 194.189,240.965 194.834,240.889 195.328 C 240.814 195.823,241.005 196.735,241.314 197.355 C 241.623 197.975,241.787 198.824,241.678 199.241 C 241.569 199.658,241.639 200.000,241.833 200.000 C 242.028 200.000,242.188 200.693,242.188 201.539 C 242.188 202.386,242.351 203.180,242.551 203.304 C 242.751 203.427,242.833 203.979,242.733 204.530 C 242.633 205.081,242.696 205.442,242.872 205.333 C 243.048 205.225,243.205 205.430,243.222 205.790 C 243.238 206.151,243.386 207.061,243.551 207.813 C 243.715 208.564,243.836 209.513,243.820 209.921 C 243.803 210.329,244.058 211.180,244.385 211.813 C 244.712 212.446,244.895 213.048,244.791 213.152 C 244.687 213.255,244.760 213.887,244.951 214.556 C 245.370 216.016,244.543 217.220,243.337 216.904 C 242.920 216.795,242.578 216.866,242.578 217.062 C 242.578 217.258,241.921 217.463,241.118 217.517 C 240.316 217.571,239.529 217.847,239.371 218.130 C 239.211 218.415,238.602 218.592,238.008 218.527 C 237.418 218.462,236.710 218.595,236.436 218.823 C 236.162 219.050,235.938 219.105,235.938 218.945 C 235.938 218.785,235.713 218.840,235.439 219.068 C 235.166 219.295,234.469 219.544,233.892 219.622 C 233.314 219.699,232.704 219.914,232.534 220.100 C 232.363 220.288,232.469 220.297,232.775 220.119 C 233.127 219.915,233.232 219.951,233.066 220.218 C 232.925 220.447,232.282 220.551,231.639 220.450 C 230.995 220.349,230.469 220.435,230.469 220.643 C 230.469 220.851,230.140 220.935,229.737 220.829 C 229.335 220.724,228.198 221.006,227.211 221.456 C 226.223 221.906,225.278 222.234,225.110 222.185 C 224.942 222.136,224.189 222.335,223.438 222.627 C 222.686 222.919,221.920 223.127,221.736 223.089 C 221.552 223.051,221.165 223.217,220.874 223.457 C 220.584 223.698,220.163 223.782,219.939 223.643 C 219.715 223.505,219.531 223.554,219.531 223.752 C 219.531 223.950,219.136 224.083,218.652 224.048 C 218.169 224.013,217.446 224.200,217.045 224.463 C 216.644 224.726,216.091 224.854,215.815 224.749 C 215.539 224.643,215.196 224.747,215.052 224.980 C 214.908 225.213,214.631 225.305,214.437 225.185 C 214.243 225.066,213.635 225.262,213.085 225.623 C 212.535 225.983,211.973 226.165,211.835 226.028 C 211.698 225.891,211.155 226.061,210.628 226.406 C 210.101 226.752,209.789 226.840,209.936 226.603 C 210.082 226.366,210.031 226.172,209.821 226.172 C 209.612 226.172,209.378 226.358,209.302 226.586 C 209.226 226.813,208.377 227.086,207.414 227.191 C 206.411 227.301,205.448 227.666,205.159 228.047 C 204.881 228.412,204.568 228.652,204.463 228.579 C 204.057 228.298,202.013 229.265,201.222 230.114 C 200.765 230.605,200.391 230.861,200.391 230.684 C 200.391 230.507,199.887 230.995,199.271 231.770 C 198.656 232.544,198.041 233.067,197.904 232.930 C 197.768 232.794,197.656 232.975,197.656 233.333 C 197.656 233.691,197.382 233.984,197.047 233.984 C 196.712 233.984,196.548 234.161,196.681 234.378 C 196.815 234.594,196.667 234.870,196.352 234.991 C 196.038 235.111,195.823 235.502,195.875 235.859 C 195.928 236.215,195.779 236.724,195.544 236.990 C 194.313 238.383,194.121 238.714,194.339 239.067 C 194.470 239.280,194.420 239.453,194.229 239.453 C 194.037 239.453,193.859 239.673,193.833 239.941 C 193.807 240.210,193.655 241.133,193.495 241.992 C 193.048 244.395,193.263 252.840,193.764 252.530 C 193.998 252.386,194.129 253.374,194.168 255.573 C 194.182 256.382,194.326 256.963,194.487 256.863 C 194.648 256.764,194.750 257.288,194.713 258.029 C 194.676 258.769,194.776 259.375,194.936 259.375 C 195.095 259.375,195.218 259.595,195.208 259.863 C 195.154 261.305,195.348 262.524,195.605 262.365 C 195.767 262.265,195.872 262.957,195.840 263.904 C 195.807 264.851,195.939 265.625,196.133 265.625 C 196.326 265.625,196.484 266.504,196.484 267.578 C 196.484 268.877,196.648 269.533,196.973 269.537 C 197.298 269.541,197.266 269.669,196.875 269.922 C 196.458 270.191,196.435 270.302,196.794 270.307 C 197.072 270.310,197.263 270.532,197.217 270.801 C 197.172 271.069,197.283 271.992,197.463 272.852 C 197.785 274.386,197.950 275.474,198.014 276.488 C 198.032 276.769,198.245 276.877,198.487 276.727 C 198.804 276.531,198.816 276.654,198.529 277.166 C 198.248 277.669,198.295 278.429,198.693 279.767 C 199.002 280.807,199.148 281.830,199.018 282.040 C 198.888 282.250,198.963 282.422,199.183 282.422 C 199.404 282.422,199.487 282.677,199.367 282.989 C 199.247 283.301,199.294 283.784,199.470 284.063 C 199.646 284.342,199.820 285.010,199.857 285.547 C 199.979 287.360,200.353 289.641,200.736 290.918 C 200.946 291.616,201.020 292.188,200.901 292.188 C 200.783 292.188,200.927 292.485,201.222 292.848 C 201.679 293.413,201.677 293.460,201.203 293.175 C 200.768 292.913,200.717 293.002,200.967 293.588 C 201.142 293.999,201.297 294.644,201.312 295.020 C 201.327 295.396,201.448 295.703,201.581 295.703 C 201.714 295.703,201.837 295.923,201.853 296.191 C 201.870 296.460,201.992 297.295,202.124 298.047 C 202.352 299.342,202.593 301.143,202.690 302.269 C 202.715 302.550,202.866 302.699,203.027 302.600 C 203.188 302.501,203.324 303.413,203.329 304.628 C 203.333 305.876,203.506 306.807,203.727 306.768 C 203.941 306.731,204.142 307.434,204.173 308.331 C 204.274 311.203,204.618 313.702,204.977 314.182 C 205.305 314.619,205.501 315.803,205.588 317.871 C 205.608 318.354,205.776 318.750,205.961 318.750 C 206.145 318.750,206.213 318.885,206.110 319.050 C 205.846 319.478,207.108 322.075,208.093 323.131 C 208.551 323.622,208.983 324.287,209.053 324.609 C 209.206 325.319,210.823 326.953,211.371 326.953 C 211.588 326.953,211.668 327.110,211.549 327.303 C 211.361 327.607,212.431 328.278,212.847 328.117 C 212.930 328.085,213.106 328.207,213.238 328.388 C 213.819 329.191,216.920 330.896,217.438 330.697 C 217.758 330.574,217.904 330.647,217.771 330.864 C 217.572 331.186,218.351 331.356,219.390 331.217 C 219.527 331.198,219.788 331.418,219.970 331.705 C 220.236 332.124,220.303 332.111,220.313 331.641 C 220.320 331.258,220.424 331.205,220.611 331.487 C 221.034 332.123,223.828 332.571,223.828 332.003 C 223.828 331.705,224.197 331.639,224.902 331.811 C 226.835 332.282,228.527 332.089,231.705 331.033 C 232.744 330.688,233.594 330.234,233.594 330.024 C 233.594 329.813,233.750 329.738,233.940 329.855 C 234.131 329.973,234.504 329.808,234.769 329.488 C 235.035 329.168,235.504 328.906,235.813 328.906 C 236.122 328.906,236.266 328.730,236.133 328.516 C 236.000 328.301,236.151 328.125,236.468 328.125 C 236.785 328.125,237.103 327.993,237.174 327.832 C 237.246 327.671,238.008 326.935,238.867 326.196 C 239.727 325.457,240.386 324.798,240.332 324.731 C 240.066 324.400,240.281 323.811,240.597 324.006 C 240.796 324.129,241.081 323.846,241.231 323.376 C 241.380 322.906,241.843 322.156,242.261 321.710 C 242.710 321.229,242.951 320.540,242.853 320.020 C 242.761 319.536,242.838 319.141,243.023 319.141 C 243.208 319.141,243.359 318.877,243.359 318.555 C 243.359 318.232,243.507 317.969,243.688 317.969 C 244.049 317.969,244.275 315.546,244.252 311.914 C 244.239 309.910,243.966 307.617,243.740 307.617 C 243.703 307.617,243.618 307.178,243.552 306.641 C 243.486 306.104,243.255 304.788,243.039 303.717 C 242.822 302.647,242.728 301.636,242.830 301.471 C 242.932 301.307,242.867 301.172,242.686 301.172 C 242.505 301.172,242.383 300.688,242.415 300.098 C 242.447 299.507,242.324 298.734,242.143 298.380 C 241.869 297.846,241.504 295.672,241.317 293.457 C 241.295 293.188,241.146 292.969,240.987 292.969 C 240.828 292.969,240.785 292.635,240.892 292.227 C 240.999 291.820,240.877 291.095,240.621 290.618 C 240.253 289.929,240.258 289.812,240.646 290.052 C 240.978 290.258,241.038 290.197,240.832 289.863 C 240.665 289.592,240.444 288.730,240.341 287.947 C 240.238 287.164,239.993 286.326,239.796 286.085 C 239.600 285.843,239.552 285.354,239.689 284.997 C 240.045 284.068,239.069 280.815,238.525 281.119 C 238.234 281.282,238.241 281.197,238.546 280.867 C 238.845 280.543,238.888 280.060,238.668 279.483 C 238.483 278.995,238.433 278.494,238.557 278.370 C 238.681 278.246,238.604 277.920,238.386 277.646 C 238.168 277.372,238.051 276.771,238.126 276.310 C 238.202 275.849,238.002 275.255,237.682 274.989 C 237.239 274.622,237.206 274.378,237.543 273.972 C 237.817 273.642,237.835 273.438,237.590 273.438 C 237.373 273.438,237.254 272.822,237.327 272.070 C 237.403 271.281,237.284 270.703,237.044 270.703 C 236.815 270.703,236.720 270.352,236.832 269.922 C 236.944 269.492,236.921 269.141,236.780 269.141 C 236.526 269.141,236.478 268.861,236.212 265.820 C 236.136 264.961,235.953 263.730,235.804 263.086 C 235.253 260.697,235.204 260.140,235.567 260.364 C 235.771 260.490,235.938 260.444,235.938 260.262 C 235.938 260.081,236.245 259.908,236.621 259.879 C 236.997 259.850,238.155 259.537,239.193 259.183 C 240.232 258.829,241.419 258.515,241.830 258.484 C 242.242 258.453,242.578 258.295,242.578 258.132 C 242.578 257.970,242.871 257.949,243.228 258.086 C 243.604 258.230,243.779 258.176,243.644 257.957 C 243.515 257.749,243.794 257.564,244.264 257.546 C 245.669 257.492,246.767 257.215,247.325 256.773 C 247.816 256.385,248.400 256.268,250.098 256.221 C 250.474 256.210,250.781 256.022,250.781 255.803 C 250.781 255.583,251.001 255.478,251.270 255.569 C 251.538 255.659,252.285 255.521,252.930 255.261 C 253.574 255.001,254.321 254.869,254.590 254.966 C 254.858 255.063,255.184 254.866,255.314 254.527 C 255.444 254.188,255.704 254.006,255.892 254.122 C 256.080 254.238,256.570 254.153,256.980 253.934 C 257.581 253.612,257.764 253.680,257.922 254.281 C 258.033 254.709,257.885 255.117,257.574 255.236 C 257.274 255.351,257.031 255.980,257.031 256.641 C 257.031 257.353,256.790 257.930,256.435 258.066 C 255.945 258.254,255.928 258.403,256.338 258.910 C 256.633 259.274,256.655 259.416,256.390 259.258 C 256.105 259.087,255.853 259.482,255.689 260.355 C 255.548 261.105,255.247 261.719,255.019 261.719 C 254.791 261.719,254.709 261.992,254.837 262.325 C 254.970 262.673,254.904 262.829,254.683 262.693 C 254.335 262.478,254.128 262.994,254.251 263.770 C 254.276 263.931,254.131 264.063,253.929 264.063 C 253.726 264.063,253.630 264.423,253.715 264.863 C 253.799 265.304,253.651 265.748,253.384 265.850 C 253.117 265.952,252.871 266.411,252.836 266.870 C 252.802 267.328,252.600 267.811,252.387 267.942 C 252.175 268.073,251.907 268.697,251.793 269.328 C 251.607 270.354,251.267 271.167,249.384 275.092 C 249.102 275.680,248.937 276.505,249.018 276.925 C 249.121 277.460,248.998 277.625,248.606 277.475 C 248.125 277.290,247.742 278.905,248.145 279.422 C 248.198 279.491,247.942 279.848,247.575 280.215 C 247.208 280.582,247.008 281.143,247.131 281.462 C 247.253 281.780,247.114 282.330,246.821 282.682 C 246.144 283.497,245.972 291.625,246.607 292.773 C 246.844 293.203,246.994 293.774,246.940 294.043 C 246.885 294.312,247.024 294.531,247.249 294.531 C 247.473 294.531,247.656 294.828,247.656 295.190 C 247.656 295.552,248.052 296.283,248.535 296.815 C 249.019 297.347,249.172 297.642,248.875 297.470 C 248.504 297.254,248.398 297.326,248.533 297.700 C 248.642 297.998,248.945 298.193,249.207 298.132 C 249.468 298.072,249.609 298.243,249.519 298.512 C 249.338 299.057,250.894 300.781,251.568 300.781 C 251.805 300.781,251.910 300.925,251.802 301.101 C 251.489 301.607,253.420 303.465,254.901 304.084 C 255.643 304.394,256.250 304.832,256.250 305.058 C 256.250 305.284,256.382 305.440,256.543 305.406 C 256.704 305.371,257.324 305.544,257.920 305.791 C 258.517 306.037,259.396 306.320,259.873 306.419 C 260.351 306.519,261.182 306.736,261.719 306.902 C 262.922 307.274,335.474 307.546,336.312 307.181 C 336.643 307.037,337.380 306.956,337.950 307.001 C 338.519 307.045,339.105 306.888,339.252 306.650 C 339.399 306.413,339.856 306.325,340.267 306.456 C 340.686 306.589,341.016 306.509,341.016 306.276 C 341.016 306.047,341.147 305.880,341.309 305.906 C 341.583 305.949,341.743 305.915,342.480 305.660 C 342.642 305.605,343.167 305.431,343.648 305.274 C 344.129 305.117,344.408 304.804,344.267 304.577 C 344.111 304.324,344.252 304.256,344.631 304.402 C 345.276 304.649,347.266 303.108,347.266 302.362 C 347.266 302.137,347.398 301.997,347.559 302.051 C 348.109 302.234,350.809 299.465,350.604 298.928 C 350.491 298.636,350.553 298.491,350.740 298.607 C 351.167 298.871,352.370 296.452,352.061 295.952 C 351.935 295.749,352.035 295.708,352.283 295.861 C 352.683 296.108,352.809 295.867,352.701 295.063 C 352.683 294.926,352.853 294.699,353.081 294.559 C 354.015 293.981,354.392 282.694,353.508 281.738 C 353.410 281.632,353.355 281.484,352.929 280.176 C 352.772 279.692,352.478 279.297,352.275 279.297 C 352.073 279.297,352.008 279.133,352.132 278.933 C 352.645 278.103,347.438 271.875,346.231 271.875 C 345.920 271.875,345.279 271.479,344.806 270.996 C 344.332 270.513,343.683 270.059,343.363 269.988 C 343.043 269.917,342.669 269.679,342.533 269.458 C 342.394 269.233,341.900 269.179,341.406 269.336 C 340.854 269.511,340.617 269.469,340.769 269.223 C 341.130 268.639,340.016 268.349,339.443 268.878 C 339.062 269.231,339.011 269.224,339.224 268.848 C 339.381 268.570,339.279 268.340,338.988 268.315 C 338.707 268.291,337.861 268.216,337.109 268.149 C 336.357 268.082,326.478 268.008,315.154 267.985 C 297.236 267.948,294.594 267.868,294.786 267.370 C 294.907 267.055,295.173 266.797,295.377 266.797 C 295.582 266.797,295.650 266.636,295.528 266.440 C 295.407 266.243,295.474 266.023,295.678 265.951 C 295.881 265.879,296.138 265.315,296.249 264.698 C 296.360 264.081,296.758 263.235,297.135 262.819 C 297.683 262.214,297.717 261.998,297.306 261.744 C 296.945 261.521,296.921 261.346,297.224 261.159 C 297.462 261.012,297.667 261.034,297.681 261.207 C 297.718 261.677,298.477 259.719,298.690 258.606 C 298.791 258.075,299.076 257.399,299.321 257.103 C 299.567 256.807,299.824 256.200,299.892 255.754 C 299.960 255.309,300.224 254.693,300.478 254.387 C 300.732 254.081,300.994 253.452,301.061 252.989 C 301.127 252.527,301.293 251.885,301.431 251.563 C 301.568 251.240,301.730 250.730,301.791 250.430 C 301.852 250.129,302.133 249.736,302.415 249.557 C 302.825 249.297,302.828 249.229,302.427 249.225 C 302.102 249.221,302.268 248.714,302.898 247.786 C 303.434 246.998,303.781 246.207,303.671 246.028 C 303.560 245.850,303.626 245.703,303.818 245.703 C 304.010 245.703,304.174 245.483,304.182 245.215 C 304.213 244.251,304.501 243.550,305.044 243.124 C 305.347 242.886,305.490 242.417,305.362 242.081 C 305.224 241.723,305.377 241.375,305.733 241.239 C 306.110 241.094,306.262 240.713,306.136 240.230 C 306.024 239.803,306.095 239.354,306.293 239.231 C 306.491 239.109,306.535 238.818,306.391 238.585 C 306.244 238.347,306.309 238.272,306.539 238.414 C 307.132 238.780,308.261 235.833,307.673 235.455 C 307.391 235.274,307.487 235.166,307.933 235.162 C 308.322 235.159,308.531 234.980,308.398 234.766 C 308.266 234.551,308.343 234.375,308.571 234.375 C 308.798 234.375,308.984 233.948,308.984 233.426 C 308.984 232.905,309.248 232.214,309.570 231.892 C 309.893 231.569,310.156 231.065,310.156 230.770 C 310.156 230.475,310.341 230.049,310.567 229.823 C 310.794 229.597,311.027 228.957,311.086 228.401 C 311.146 227.845,311.400 227.142,311.651 226.839 C 311.903 226.536,312.147 225.823,312.194 225.253 C 312.241 224.684,312.428 224.219,312.608 224.219 C 312.789 224.219,312.828 224.043,312.695 223.828 C 312.563 223.613,312.629 223.438,312.843 223.438 C 313.057 223.438,313.241 223.130,313.252 222.754 C 313.299 221.075,313.413 220.476,313.773 220.020 C 314.041 219.679,313.996 219.529,313.622 219.525 C 313.189 219.520,313.195 219.450,313.653 219.161 C 314.373 218.705,314.391 210.938,313.673 210.938 C 313.549 210.938,313.413 210.630,313.370 210.254 C 313.232 209.031,313.069 208.407,312.759 207.910 C 312.579 207.623,312.644 207.422,312.915 207.422 C 313.263 207.422,313.267 207.289,312.930 206.883 C 312.684 206.587,312.386 205.400,312.269 204.246 C 312.139 202.982,311.803 201.954,311.421 201.660 C 311.071 201.390,310.991 201.172,311.244 201.172 C 311.566 201.172,311.593 200.891,311.337 200.218 C 311.137 199.693,311.043 198.902,311.129 198.460 C 311.214 198.018,311.118 197.656,310.915 197.656 C 310.713 197.656,310.547 197.305,310.547 196.875 C 310.547 196.445,310.327 196.091,310.059 196.088 C 309.720 196.084,309.742 195.973,310.131 195.727 C 310.574 195.447,310.593 195.253,310.222 194.806 C 309.964 194.494,309.862 193.954,309.996 193.604 C 310.136 193.241,310.044 192.969,309.783 192.969 C 309.532 192.969,309.381 192.644,309.448 192.248 C 309.515 191.851,309.307 191.202,308.984 190.805 C 308.648 190.391,308.606 190.209,308.887 190.378 C 309.398 190.685,309.590 189.799,309.115 189.324 C 308.972 189.181,308.821 188.342,308.779 187.460 C 308.737 186.578,308.547 185.742,308.355 185.604 C 308.164 185.465,307.972 185.000,307.929 184.570 C 307.658 181.909,307.483 180.947,307.110 180.078 C 306.654 179.018,306.066 176.274,306.126 175.488 C 306.146 175.220,306.031 175.000,305.870 175.000 C 305.709 175.000,305.626 174.385,305.686 173.633 C 305.767 172.615,305.641 172.266,305.193 172.266 C 304.703 172.266,304.682 172.157,305.078 171.680 C 305.418 171.270,305.443 170.947,305.159 170.605 C 304.815 170.191,304.505 168.812,304.126 166.016 C 304.082 165.693,303.918 165.147,303.760 164.801 C 303.603 164.455,303.408 163.664,303.326 163.043 C 303.245 162.422,303.145 161.870,303.103 161.816 C 302.865 161.509,302.183 156.928,302.289 156.348 C 302.338 156.079,302.224 155.859,302.035 155.859 C 301.847 155.859,301.678 155.640,301.659 155.371 C 301.640 155.103,301.500 154.443,301.346 153.906 C 301.193 153.369,301.068 152.358,301.069 151.660 C 301.069 150.962,300.888 150.391,300.665 150.391 C 300.443 150.391,300.364 150.287,300.491 150.160 C 300.618 150.033,300.475 149.110,300.173 148.109 C 299.870 147.108,299.727 145.959,299.853 145.557 C 300.010 145.057,299.938 144.914,299.625 145.107 C 299.352 145.277,299.203 145.178,299.258 144.863 C 299.308 144.573,299.229 143.721,299.082 142.969 C 298.936 142.217,298.744 141.162,298.656 140.625 C 298.568 140.088,298.461 139.604,298.418 139.551 C 298.375 139.497,298.318 139.292,298.291 139.095 C 298.264 138.898,298.125 138.619,297.981 138.476 C 297.838 138.332,297.800 137.772,297.898 137.232 C 297.996 136.691,297.852 135.978,297.578 135.648 C 297.304 135.317,297.043 134.413,296.999 133.637 C 296.866 131.310,296.597 130.268,296.152 130.366 C 295.921 130.418,295.834 130.191,295.960 129.863 C 296.222 129.181,295.041 125.845,294.263 125.066 C 293.977 124.780,293.830 124.405,293.937 124.232 C 294.044 124.058,293.872 123.701,293.555 123.438 C 293.237 123.174,293.067 122.814,293.176 122.638 C 293.284 122.461,292.755 121.716,291.999 120.982 C 291.243 120.248,290.625 119.466,290.625 119.244 C 290.625 119.022,290.191 118.556,289.661 118.208 C 289.131 117.861,288.176 117.067,287.539 116.445 C 286.902 115.822,286.281 115.412,286.159 115.534 C 286.037 115.655,285.938 115.550,285.938 115.299 C 285.938 115.049,285.674 114.844,285.352 114.844 C 285.029 114.844,284.764 114.712,284.762 114.551 C 284.760 114.390,283.973 113.913,283.014 113.491 C 282.055 113.069,281.175 112.478,281.060 112.177 C 280.936 111.853,280.533 111.713,280.073 111.833 C 279.559 111.968,279.297 111.843,279.297 111.464 C 279.297 111.149,279.113 111.005,278.889 111.143 C 278.665 111.282,278.225 111.183,277.913 110.923 C 277.600 110.664,277.344 110.582,277.344 110.742 C 277.344 110.902,277.089 110.821,276.777 110.562 C 276.465 110.304,275.849 110.206,275.409 110.346 C 274.969 110.485,274.609 110.429,274.609 110.221 C 274.609 109.798,272.249 108.871,271.945 109.175 C 271.839 109.281,271.508 109.166,271.211 108.919 C 270.830 108.604,270.547 108.593,270.256 108.884 C 269.985 109.156,269.420 109.176,268.613 108.944 C 267.245 108.550,258.566 108.624,258.816 109.028 M123.335 140.159 C 122.956 140.233,122.732 140.432,122.837 140.601 C 122.941 140.770,122.636 140.877,122.158 140.840 C 121.680 140.802,120.865 141.134,120.347 141.577 C 119.829 142.020,119.531 142.165,119.684 141.899 C 119.871 141.574,119.765 141.491,119.358 141.647 C 119.026 141.774,118.840 142.018,118.945 142.188 C 119.139 142.500,118.019 143.145,117.480 143.031 C 117.319 142.997,117.188 143.145,117.188 143.359 C 117.188 143.574,117.056 143.722,116.895 143.688 C 116.312 143.565,115.234 144.235,115.234 144.721 C 115.234 144.994,114.707 145.436,114.063 145.703 C 113.418 145.970,112.891 146.414,112.891 146.689 C 112.891 146.964,112.376 147.368,111.748 147.588 C 111.119 147.807,110.297 148.455,109.922 149.029 C 109.546 149.602,108.819 150.231,108.307 150.426 C 107.794 150.620,107.471 150.936,107.589 151.127 C 107.707 151.318,107.542 151.691,107.222 151.957 C 106.902 152.222,106.641 152.297,106.641 152.123 C 106.641 151.948,106.282 152.191,105.844 152.661 C 105.406 153.131,104.693 153.516,104.259 153.516 C 103.756 153.516,103.572 153.681,103.752 153.973 C 103.942 154.280,103.821 154.348,103.384 154.180 C 102.938 154.009,102.725 154.141,102.704 154.602 C 102.687 154.971,102.588 155.067,102.485 154.815 C 102.346 154.472,101.971 154.492,101.003 154.897 C 100.291 155.194,99.598 155.328,99.464 155.193 C 99.329 155.058,99.219 155.115,99.219 155.320 C 99.219 155.695,99.029 155.736,96.414 155.921 C 95.624 155.977,95.063 156.162,95.168 156.332 C 95.273 156.502,94.953 156.655,94.457 156.673 C 93.961 156.691,93.115 156.779,92.578 156.869 C 92.041 156.958,91.287 157.075,90.903 157.129 C 90.519 157.183,90.080 157.402,89.927 157.617 C 89.774 157.832,89.213 158.057,88.681 158.117 C 88.149 158.176,87.569 158.484,87.392 158.800 C 87.215 159.116,86.729 159.375,86.312 159.375 C 85.895 159.375,85.345 159.709,85.090 160.117 C 84.835 160.526,84.394 160.770,84.110 160.661 C 83.802 160.543,83.594 160.742,83.594 161.156 C 83.594 161.537,83.478 161.733,83.337 161.592 C 83.195 161.451,82.810 161.553,82.480 161.820 C 82.003 162.207,81.941 162.206,82.175 161.816 C 82.370 161.491,82.209 161.328,81.692 161.328 C 81.265 161.328,80.640 161.053,80.304 160.717 C 79.968 160.381,79.489 160.233,79.240 160.387 C 78.984 160.545,78.890 160.498,79.024 160.281 C 79.249 159.918,77.025 158.583,75.820 158.358 C 75.520 158.301,75.142 158.042,74.981 157.781 C 74.820 157.521,74.043 157.280,73.254 157.245 C 72.465 157.211,71.692 156.976,71.535 156.722 C 71.314 156.364,67.383 156.309,67.383 156.664 C 67.383 156.697,66.943 156.759,66.406 156.801 C 64.698 156.935,60.183 159.355,61.593 159.381 C 61.770 159.384,61.650 159.553,61.328 159.757 C 61.006 159.960,60.684 160.529,60.613 161.021 C 60.258 163.475,60.321 165.122,60.799 165.904 C 61.090 166.380,61.328 167.027,61.328 167.343 C 61.328 167.658,61.680 168.028,62.109 168.164 C 62.539 168.300,62.891 168.578,62.891 168.780 C 62.891 169.323,64.880 171.223,66.095 171.841 C 66.675 172.136,67.115 172.488,67.071 172.622 C 67.028 172.757,67.915 173.815,69.043 174.974 C 70.171 176.132,71.097 177.184,71.100 177.310 C 71.103 177.436,71.587 178.090,72.174 178.763 C 74.559 181.497,74.986 182.031,74.787 182.031 C 74.549 182.031,75.152 182.811,76.551 184.315 C 77.082 184.885,77.555 185.610,77.603 185.926 C 77.651 186.243,78.140 186.828,78.689 187.228 C 79.238 187.628,79.688 188.151,79.688 188.388 C 79.688 188.626,79.414 188.480,79.080 188.063 C 78.493 187.330,78.486 187.334,78.884 188.157 C 79.111 188.626,79.650 189.122,80.083 189.259 C 80.516 189.397,80.760 189.689,80.624 189.909 C 80.262 190.494,81.311 192.248,81.889 192.026 C 82.169 191.918,82.301 192.049,82.194 192.328 C 82.090 192.598,82.359 193.227,82.791 193.726 C 83.224 194.224,83.482 194.786,83.366 194.975 C 83.249 195.164,83.428 195.423,83.764 195.552 C 84.100 195.681,84.375 196.119,84.375 196.526 C 84.375 196.933,84.639 197.266,84.961 197.266 C 85.283 197.266,85.547 197.458,85.547 197.694 C 85.547 197.929,85.910 198.632,86.355 199.256 C 86.799 199.880,87.024 200.391,86.854 200.391 C 86.684 200.391,86.939 200.666,87.420 201.003 C 87.901 201.340,88.193 201.780,88.069 201.980 C 87.946 202.180,88.031 202.344,88.258 202.344 C 88.486 202.344,88.672 202.685,88.672 203.103 C 88.672 203.520,89.022 204.107,89.451 204.407 C 89.879 204.707,90.113 205.069,89.971 205.211 C 89.830 205.353,89.929 205.469,90.192 205.469 C 90.456 205.469,90.577 205.620,90.463 205.805 C 90.349 205.991,90.938 206.883,91.774 207.788 C 92.609 208.693,93.039 209.335,92.728 209.216 C 92.302 209.053,92.335 209.237,92.858 209.956 C 93.873 211.351,94.834 211.172,94.568 209.639 C 94.537 209.462,94.648 209.398,94.815 209.497 C 95.194 209.722,97.710 208.387,97.431 208.108 C 97.318 207.995,97.748 207.721,98.387 207.498 C 99.026 207.275,99.744 206.728,99.983 206.281 C 100.223 205.834,100.656 205.469,100.946 205.469 C 101.237 205.469,101.886 204.952,102.389 204.320 C 102.892 203.689,103.403 203.333,103.525 203.530 C 103.817 204.003,106.178 202.342,106.470 201.459 C 106.595 201.080,106.860 200.871,107.059 200.994 C 107.259 201.117,107.425 200.900,107.428 200.511 C 107.433 199.923,107.495 199.901,107.797 200.380 C 108.109 200.873,108.198 200.859,108.418 200.284 C 108.560 199.916,108.833 199.711,109.025 199.830 C 109.218 199.949,109.375 199.860,109.375 199.632 C 109.375 199.405,109.558 199.219,109.781 199.219 C 110.438 199.219,112.488 197.562,112.269 197.208 C 112.159 197.030,112.386 196.998,112.773 197.137 C 113.160 197.276,113.348 197.248,113.191 197.075 C 113.034 196.901,113.912 196.135,115.144 195.373 C 116.375 194.611,117.671 193.666,118.023 193.273 C 118.375 192.881,119.429 192.146,120.366 191.640 C 121.304 191.134,122.026 190.523,121.973 190.282 C 121.919 190.041,122.232 189.844,122.669 189.844 C 123.105 189.844,123.563 189.581,123.686 189.260 C 123.809 188.939,124.045 188.760,124.210 188.862 C 124.374 188.963,124.949 188.516,125.487 187.866 C 126.025 187.217,126.706 186.737,127.002 186.800 C 127.799 186.969,127.921 184.838,127.161 183.999 C 126.814 183.615,126.579 183.147,126.639 182.959 C 126.810 182.425,125.689 179.940,125.018 179.366 C 124.671 179.068,124.640 178.965,124.944 179.122 C 125.524 179.420,125.380 178.697,124.367 176.222 C 123.709 174.615,123.708 174.585,124.316 174.707 C 124.585 174.761,124.756 174.572,124.697 174.287 C 124.638 174.003,124.755 173.872,124.956 173.996 C 125.157 174.121,125.880 173.518,126.563 172.656 C 127.245 171.795,127.963 171.189,128.159 171.310 C 128.355 171.431,128.516 171.256,128.516 170.921 C 128.516 170.587,128.691 170.313,128.906 170.313 C 129.121 170.313,129.297 170.061,129.297 169.753 C 129.297 169.445,129.661 169.078,130.106 168.936 C 130.609 168.777,130.833 168.463,130.697 168.108 C 130.576 167.794,130.608 167.616,130.766 167.712 C 130.925 167.808,131.281 167.642,131.558 167.342 C 131.835 167.042,131.923 166.791,131.754 166.784 C 131.584 166.778,131.787 166.514,132.204 166.199 C 132.621 165.883,132.796 165.622,132.594 165.619 C 132.385 165.616,132.394 165.490,132.617 165.326 C 133.322 164.808,134.016 163.258,133.742 162.814 C 133.567 162.531,133.653 162.490,133.990 162.699 C 134.358 162.926,134.441 162.844,134.277 162.416 C 134.149 162.085,134.214 161.645,134.420 161.440 C 134.744 161.115,134.964 160.343,135.312 158.312 C 135.357 158.050,135.504 157.725,135.639 157.590 C 135.774 157.456,135.788 157.097,135.672 156.793 C 135.555 156.489,135.688 155.965,135.966 155.629 C 136.380 155.130,136.381 154.962,135.968 154.707 C 135.613 154.487,135.591 154.316,135.896 154.127 C 136.443 153.789,136.464 151.302,135.922 150.967 C 135.698 150.829,135.629 150.357,135.768 149.918 C 135.948 149.351,135.885 149.205,135.547 149.414 C 135.209 149.623,135.145 149.478,135.326 148.910 C 135.465 148.471,135.393 147.998,135.166 147.857 C 134.939 147.717,134.854 147.439,134.978 147.239 C 135.101 147.039,135.038 146.875,134.836 146.875 C 134.635 146.875,134.251 146.348,133.984 145.703 C 133.717 145.059,133.315 144.531,133.091 144.531 C 132.866 144.531,132.792 144.422,132.925 144.288 C 133.178 144.035,130.966 141.638,130.401 141.553 C 130.223 141.526,129.892 141.482,129.664 141.455 C 129.437 141.428,129.362 141.226,129.498 141.006 C 129.634 140.786,129.601 140.631,129.424 140.662 C 128.506 140.821,127.325 140.581,127.515 140.274 C 127.719 139.943,124.841 139.864,123.335 140.159 " stroke="none" fill="#8bb4e3" fill-rule="evenodd"></path><path id="path2" d="M238.786 37.399 C 240.245 37.475,242.530 37.474,243.864 37.398 C 245.198 37.322,244.004 37.260,241.211 37.261 C 238.418 37.262,237.327 37.324,238.786 37.399 M118.998 197.599 C 118.647 197.986,118.362 198.466,118.365 198.664 C 118.369 198.861,118.500 198.833,118.658 198.599 C 118.816 198.366,119.276 197.995,119.679 197.775 C 120.090 197.550,120.242 197.268,120.024 197.134 C 119.811 197.001,119.348 197.211,118.998 197.599 M227.568 198.070 C 227.155 198.487,226.996 198.828,227.215 198.828 C 227.434 198.828,227.931 198.477,228.320 198.047 C 229.227 197.045,228.565 197.066,227.568 198.070 M175.000 212.587 C 175.000 212.754,175.703 212.891,176.563 212.891 C 177.422 212.891,178.125 212.821,178.125 212.736 C 178.125 212.651,177.422 212.515,176.563 212.433 C 175.703 212.351,175.000 212.421,175.000 212.587 M99.426 302.849 C 99.259 303.234,99.232 303.659,99.366 303.793 C 99.762 304.190,100.082 303.632,99.900 302.863 C 99.738 302.180,99.717 302.180,99.426 302.849 M223.828 332.031 C 223.828 332.246,224.399 332.419,225.098 332.416 C 226.061 332.411,226.226 332.319,225.781 332.031 C 225.013 331.535,223.828 331.535,223.828 332.031 " stroke="none" fill="#0494bc" fill-rule="evenodd"></path><path id="path3" d="M197.346 6.539 C 198.787 6.614,201.248 6.615,202.815 6.540 C 204.382 6.466,203.203 6.405,200.195 6.404 C 197.188 6.404,195.905 6.464,197.346 6.539 M65.014 61.035 L 63.867 62.305 65.137 61.157 C 66.320 60.088,66.586 59.766,66.284 59.766 C 66.217 59.766,65.646 60.337,65.014 61.035 M60.718 65.332 L 59.570 66.602 60.840 65.454 C 62.023 64.385,62.289 64.063,61.987 64.063 C 61.920 64.063,61.349 64.634,60.718 65.332 M6.349 195.508 C 6.353 196.367,6.433 196.673,6.526 196.187 C 6.620 195.701,6.616 194.998,6.518 194.624 C 6.421 194.251,6.344 194.648,6.349 195.508 M393.513 199.805 C 393.514 202.813,393.575 203.991,393.650 202.424 C 393.724 200.857,393.724 198.396,393.649 196.956 C 393.574 195.515,393.513 196.797,393.513 199.805 M6.349 204.492 C 6.353 205.352,6.433 205.657,6.526 205.171 C 6.620 204.685,6.616 203.982,6.518 203.609 C 6.421 203.235,6.344 203.633,6.349 204.492 M334.546 339.160 L 333.398 340.430 334.668 339.282 C 335.366 338.651,335.938 338.080,335.938 338.013 C 335.938 337.711,335.615 337.977,334.546 339.160 M194.829 393.636 C 195.315 393.729,196.018 393.726,196.391 393.628 C 196.765 393.530,196.367 393.454,195.508 393.458 C 194.648 393.462,194.343 393.542,194.829 393.636 M203.813 393.636 C 204.299 393.729,205.002 393.726,205.376 393.628 C 205.749 393.530,205.352 393.454,204.492 393.458 C 203.633 393.462,203.327 393.542,203.813 393.636 " stroke="none" fill="#f48c24" fill-rule="evenodd"></path><path id="path4" d="M239.258 110.938 C 239.108 111.180,239.847 111.328,241.211 111.328 C 242.574 111.328,243.314 111.180,243.164 110.938 C 243.031 110.723,242.152 110.547,241.211 110.547 C 240.269 110.547,239.391 110.723,239.258 110.938 M176.860 183.479 C 177.346 183.573,178.049 183.569,178.423 183.472 C 178.796 183.374,178.398 183.297,177.539 183.302 C 176.680 183.306,176.374 183.386,176.860 183.479 " stroke="none" fill="#048cbc" fill-rule="evenodd"></path></g></svg>