<svg id="svg" version="1.1" xmlns="http://www.w3.org/2000/svg" xmlns:xlink="http://www.w3.org/1999/xlink" width="400" height="400" viewBox="0, 0, 400,400"><g id="svgg"><path id="path0" d="M166.800 15.600 C 166.800 15.822,165.741 16.000,164.424 16.000 C 163.117 16.000,161.936 16.180,161.800 16.400 C 161.664 16.620,160.843 16.800,159.976 16.800 C 159.109 16.800,158.400 16.980,158.400 17.200 C 158.400 17.420,157.680 17.600,156.800 17.600 C 155.920 17.600,155.200 17.780,155.200 18.000 C 155.200 18.220,154.660 18.400,154.000 18.400 C 153.340 18.400,152.800 18.580,152.800 18.800 C 152.800 19.020,152.260 19.200,151.600 19.200 C 150.940 19.200,150.400 19.380,150.400 19.600 C 150.400 19.820,149.860 20.000,149.200 20.000 C 148.540 20.000,148.000 20.180,148.000 20.400 C 148.000 20.620,147.640 20.800,147.200 20.800 C 146.760 20.800,146.400 20.980,146.400 21.200 C 146.400 21.420,145.950 21.600,145.400 21.600 C 144.850 21.600,144.400 21.780,144.400 22.000 C 144.400 22.220,144.040 22.400,143.600 22.400 C 143.160 22.400,142.800 22.580,142.800 22.800 C 142.800 23.020,142.440 23.200,142.000 23.200 C 141.560 23.200,141.200 23.380,141.200 23.600 C 141.200 23.820,140.840 24.000,140.400 24.000 C 139.960 24.000,139.600 24.180,139.600 24.400 C 139.600 24.620,139.262 24.800,138.849 24.800 C 138.436 24.800,137.874 25.070,137.600 25.400 C 137.326 25.730,136.764 26.000,136.351 26.000 C 135.938 26.000,135.600 26.180,135.600 26.400 C 135.600 26.620,135.364 26.800,135.075 26.800 C 134.787 26.800,134.202 27.115,133.775 27.500 C 133.349 27.885,132.505 28.455,131.900 28.768 C 131.295 29.080,130.800 29.485,130.800 29.668 C 130.800 29.850,130.573 30.000,130.296 30.000 C 129.018 30.000,112.996 45.791,111.570 48.455 C 111.307 48.947,110.756 49.710,110.346 50.150 C 109.936 50.591,109.600 51.110,109.600 51.304 C 109.600 51.498,109.330 51.927,109.000 52.257 C 108.670 52.587,108.400 53.204,108.400 53.629 C 108.400 54.053,108.220 54.400,108.000 54.400 C 107.780 54.400,107.600 54.636,107.600 54.925 C 107.600 55.213,107.240 55.836,106.800 56.308 C 106.360 56.780,106.000 57.444,106.000 57.783 C 106.000 58.122,105.854 58.400,105.675 58.400 C 105.496 58.400,105.102 59.030,104.800 59.800 C 104.498 60.570,104.104 61.200,103.925 61.200 C 103.746 61.200,103.600 61.549,103.600 61.976 C 103.600 62.403,103.420 62.864,103.200 63.000 C 102.980 63.136,102.800 63.687,102.800 64.224 C 102.800 64.761,102.620 65.200,102.400 65.200 C 102.180 65.200,102.000 65.560,102.000 66.000 C 102.000 66.440,101.820 66.800,101.600 66.800 C 101.380 66.800,101.200 67.340,101.200 68.000 C 101.200 68.660,101.020 69.200,100.800 69.200 C 100.580 69.200,100.400 69.740,100.400 70.400 C 100.400 71.060,100.220 71.600,100.000 71.600 C 99.780 71.600,99.600 72.140,99.600 72.800 C 99.600 73.460,99.420 74.000,99.200 74.000 C 98.980 74.000,98.800 74.619,98.800 75.376 C 98.800 76.133,98.620 76.864,98.400 77.000 C 98.180 77.136,98.000 77.946,98.000 78.800 C 98.000 79.654,97.820 80.464,97.600 80.600 C 97.380 80.736,97.200 81.917,97.200 83.224 C 97.200 84.541,97.022 85.600,96.800 85.600 C 96.538 85.600,96.400 94.067,96.400 110.200 C 96.400 127.702,96.526 134.800,96.836 134.800 C 97.076 134.800,98.021 134.158,98.936 133.374 C 101.922 130.815,107.246 128.800,111.020 128.800 L 112.400 128.800 112.400 125.300 C 112.400 108.056,120.657 98.332,147.800 83.606 C 149.560 82.652,152.143 81.179,153.541 80.335 C 154.938 79.491,156.161 78.800,156.258 78.800 C 156.589 78.800,166.198 72.304,167.867 70.951 C 169.952 69.262,169.555 69.106,171.805 72.500 C 182.154 88.115,198.397 99.567,216.400 103.940 C 223.703 105.713,230.582 106.383,241.624 106.394 L 247.449 106.400 247.924 108.400 C 249.452 114.822,250.000 119.044,250.000 124.377 L 250.000 128.800 251.700 128.814 C 255.742 128.848,260.930 130.862,263.617 133.440 C 266.141 135.862,266.000 137.557,266.000 104.800 C 266.000 85.067,265.863 74.800,265.600 74.800 C 265.380 74.800,265.200 73.900,265.200 72.800 C 265.200 71.700,265.020 70.800,264.800 70.800 C 264.580 70.800,264.400 70.080,264.400 69.200 C 264.400 68.320,264.220 67.600,264.000 67.600 C 263.780 67.600,263.600 67.060,263.600 66.400 C 263.600 65.740,263.420 65.200,263.200 65.200 C 262.980 65.200,262.800 64.660,262.800 64.000 C 262.800 63.340,262.620 62.800,262.400 62.800 C 262.180 62.800,262.000 62.350,262.000 61.800 C 262.000 61.250,261.820 60.800,261.600 60.800 C 261.380 60.800,261.200 60.566,261.200 60.280 C 261.200 59.544,260.259 57.607,259.900 57.603 C 259.735 57.601,259.600 57.240,259.600 56.800 C 259.600 56.360,259.420 56.000,259.200 56.000 C 258.980 56.000,258.800 55.640,258.800 55.200 C 258.800 54.760,258.620 54.400,258.400 54.400 C 258.180 54.400,258.000 54.053,258.000 53.629 C 258.000 53.204,257.775 52.619,257.500 52.329 C 257.225 52.038,256.745 51.305,256.432 50.700 C 256.120 50.095,255.715 49.600,255.532 49.600 C 255.350 49.600,255.200 49.364,255.200 49.075 C 255.200 48.787,254.885 48.196,254.500 47.762 C 254.115 47.327,253.181 46.168,252.423 45.186 C 251.666 44.204,250.702 43.130,250.280 42.800 C 249.858 42.470,248.185 40.895,246.563 39.300 C 244.940 37.705,243.412 36.400,243.167 36.400 C 242.922 36.400,242.217 35.860,241.600 35.200 C 240.983 34.540,240.364 34.000,240.223 34.000 C 240.082 34.000,239.580 33.640,239.108 33.200 C 238.636 32.760,238.013 32.400,237.725 32.400 C 237.436 32.400,237.200 32.248,237.200 32.063 C 237.200 31.877,236.345 31.292,235.300 30.763 C 234.255 30.233,233.340 29.665,233.267 29.500 C 233.193 29.335,232.788 29.200,232.367 29.200 C 231.945 29.200,231.600 29.020,231.600 28.800 C 231.600 28.580,231.251 28.400,230.824 28.400 C 230.397 28.400,229.936 28.220,229.800 28.000 C 229.664 27.780,229.113 27.600,228.576 27.600 C 228.039 27.600,227.600 27.420,227.600 27.200 C 227.600 26.980,227.328 26.800,226.995 26.800 C 226.662 26.800,226.077 26.637,225.695 26.437 C 224.386 25.753,220.709 24.800,219.378 24.800 C 218.646 24.800,217.936 24.620,217.800 24.400 C 217.664 24.180,216.663 24.000,215.576 24.000 C 214.489 24.000,213.600 23.820,213.600 23.600 C 213.600 23.353,211.533 23.200,208.200 23.200 C 205.230 23.200,202.800 23.050,202.800 22.868 C 202.800 22.685,202.305 22.281,201.700 21.970 C 201.095 21.660,200.309 21.089,199.953 20.703 C 199.597 20.316,199.052 20.000,198.741 20.000 C 198.431 20.000,197.917 19.640,197.600 19.200 C 197.283 18.760,196.703 18.400,196.312 18.400 C 195.920 18.400,195.600 18.253,195.600 18.072 C 195.600 17.892,194.700 17.500,193.600 17.200 C 192.500 16.900,191.600 16.508,191.600 16.328 C 191.600 16.147,190.981 16.000,190.224 16.000 C 189.467 16.000,188.736 15.820,188.600 15.600 C 188.262 15.053,166.800 15.053,166.800 15.600 M136.200 110.349 C 128.736 112.319,122.400 116.311,122.400 119.045 C 122.400 122.042,125.135 122.396,129.231 119.930 C 138.171 114.547,147.776 114.106,156.000 118.701 C 161.690 121.880,161.942 121.979,163.217 121.534 C 165.549 120.721,165.640 118.062,163.402 116.127 C 157.267 110.824,144.598 108.133,136.200 110.349 M212.430 110.035 C 204.852 111.522,197.600 115.929,197.600 119.048 C 197.600 122.185,200.369 122.630,204.078 120.089 C 206.305 118.563,208.552 117.472,210.800 116.825 C 211.790 116.540,213.122 116.148,213.760 115.953 C 218.964 114.368,227.824 116.338,234.200 120.498 C 238.432 123.260,242.336 120.045,238.910 116.619 C 233.685 111.394,221.256 108.303,212.430 110.035 M141.887 128.438 C 134.560 130.158,131.990 138.729,137.231 143.969 C 141.156 147.894,146.986 147.637,150.739 143.374 C 156.469 136.865,150.303 126.462,141.887 128.438 M216.673 128.440 C 209.463 130.136,207.128 139.652,212.743 144.458 C 220.138 150.789,231.073 142.835,227.246 133.908 C 225.931 130.840,221.146 127.641,218.469 128.040 C 218.321 128.062,217.513 128.242,216.673 128.440 M96.545 168.700 C 96.729 177.390,97.037 180.800,97.640 180.800 C 97.838 180.800,98.000 181.340,98.000 182.000 C 98.000 182.660,98.180 183.200,98.400 183.200 C 98.620 183.200,98.800 183.740,98.800 184.400 C 98.800 185.060,98.980 185.600,99.200 185.600 C 99.420 185.600,99.600 185.960,99.600 186.400 C 99.600 186.840,99.780 187.200,100.000 187.200 C 100.220 187.200,100.400 187.560,100.400 188.000 C 100.400 188.440,100.580 188.800,100.800 188.800 C 101.020 188.800,101.200 189.160,101.200 189.600 C 101.200 190.040,101.380 190.400,101.600 190.400 C 101.820 190.400,102.000 190.670,102.000 191.000 C 102.000 191.330,102.180 191.600,102.400 191.600 C 102.620 191.600,102.800 191.920,102.800 192.312 C 102.800 192.703,103.160 193.283,103.600 193.600 C 104.040 193.917,104.400 194.419,104.400 194.714 C 104.400 195.010,105.300 196.129,106.400 197.200 C 107.500 198.271,108.400 199.287,108.400 199.457 C 108.400 199.877,111.924 203.210,113.625 204.400 C 114.381 204.929,115.090 205.482,115.200 205.629 C 115.310 205.777,116.390 206.385,117.600 206.982 C 118.810 207.578,120.113 208.231,120.495 208.433 C 120.877 208.635,121.462 208.800,121.795 208.800 C 122.128 208.800,122.400 208.980,122.400 209.200 C 122.400 209.420,122.760 209.600,123.200 209.600 C 123.640 209.600,124.000 209.780,124.000 210.000 C 124.000 210.220,124.450 210.400,125.000 210.400 C 125.550 210.400,126.000 210.580,126.000 210.800 C 126.000 211.020,126.540 211.200,127.200 211.200 C 127.860 211.200,128.400 211.380,128.400 211.600 C 128.400 211.820,129.210 212.000,130.200 212.000 C 131.190 212.000,132.000 212.180,132.000 212.400 C 132.000 212.642,133.733 212.800,136.400 212.800 C 141.531 212.800,141.599 212.703,138.300 210.102 C 125.333 199.878,115.560 183.359,113.332 167.900 L 113.116 166.400 110.858 166.395 C 106.624 166.386,101.592 164.454,98.783 161.760 C 96.363 159.437,96.350 159.479,96.545 168.700 M263.403 162.054 C 260.073 164.765,257.044 165.946,252.400 166.343 C 249.574 166.585,249.394 166.658,249.293 167.600 C 249.235 168.150,249.021 169.230,248.819 170.000 C 248.616 170.770,248.237 172.300,247.976 173.400 C 246.162 181.038,239.570 194.849,236.424 197.600 C 236.298 197.710,235.660 198.520,235.005 199.400 C 233.001 202.095,228.246 206.863,224.837 209.596 C 223.057 211.023,221.600 212.328,221.600 212.496 C 221.600 212.957,230.313 212.864,230.600 212.400 C 230.736 212.180,231.557 212.000,232.424 212.000 C 233.291 212.000,234.000 211.820,234.000 211.600 C 234.000 211.380,234.540 211.200,235.200 211.200 C 235.860 211.200,236.400 211.020,236.400 210.800 C 236.400 210.580,236.940 210.400,237.600 210.400 C 238.260 210.400,238.800 210.220,238.800 210.000 C 238.800 209.780,239.160 209.600,239.600 209.600 C 240.040 209.600,240.400 209.420,240.400 209.200 C 240.400 208.980,240.595 208.800,240.832 208.800 C 241.479 208.800,246.781 206.077,247.464 205.393 C 247.790 205.067,248.220 204.800,248.418 204.800 C 248.617 204.800,249.589 203.990,250.579 203.000 C 251.569 202.010,252.564 201.200,252.789 201.200 C 253.015 201.200,253.200 201.062,253.200 200.893 C 253.200 200.724,254.280 199.422,255.600 198.000 C 256.920 196.578,258.000 195.136,258.000 194.796 C 258.000 194.455,258.360 193.917,258.800 193.600 C 259.240 193.283,259.600 192.703,259.600 192.312 C 259.600 191.920,259.780 191.600,260.000 191.600 C 260.220 191.600,260.400 191.330,260.400 191.000 C 260.400 190.670,260.580 190.400,260.800 190.400 C 261.020 190.400,261.200 190.040,261.200 189.600 C 261.200 189.160,261.380 188.800,261.600 188.800 C 261.820 188.800,262.000 188.440,262.000 188.000 C 262.000 187.560,262.180 187.200,262.400 187.200 C 262.620 187.200,262.800 186.840,262.800 186.400 C 262.800 185.960,262.980 185.600,263.200 185.600 C 263.420 185.600,263.600 185.060,263.600 184.400 C 263.600 183.740,263.780 183.200,264.000 183.200 C 264.220 183.200,264.400 182.660,264.400 182.000 C 264.400 181.340,264.580 180.800,264.800 180.800 C 265.020 180.800,265.200 180.091,265.200 179.224 C 265.200 178.357,265.380 177.536,265.600 177.400 C 266.067 177.111,266.166 160.392,265.700 160.414 C 265.535 160.422,264.501 161.160,263.403 162.054 M217.795 315.608 C 217.657 315.832,216.617 316.484,215.486 317.058 C 209.649 320.016,206.400 325.056,206.400 331.155 C 206.400 346.206,225.678 352.493,234.458 340.306 L 235.247 339.211 233.956 337.606 C 232.736 336.087,231.600 335.510,231.600 336.409 C 231.600 336.634,230.853 337.628,229.940 338.619 C 225.037 343.938,216.829 343.393,212.899 337.489 C 205.521 326.404,219.629 314.439,229.530 323.384 L 231.150 324.848 231.746 323.924 C 233.801 320.738,233.147 319.379,228.508 317.199 C 227.505 316.727,226.428 316.085,226.114 315.771 C 225.432 315.089,218.203 314.947,217.795 315.608 M262.522 319.582 C 260.163 321.021,258.931 323.914,259.607 326.426 C 261.207 332.367,269.062 332.916,271.435 327.251 C 273.653 321.957,267.421 316.595,262.522 319.582 M306.343 319.663 C 302.236 322.045,302.269 328.030,306.402 330.353 C 309.354 332.012,313.089 330.960,314.753 327.998 C 317.777 322.618,311.676 316.571,306.343 319.663 M108.907 344.663 C 107.886 345.024,106.603 345.956,105.677 347.007 C 98.032 355.692,109.910 367.576,118.606 359.941 C 126.342 353.149,118.744 341.180,108.907 344.663 M164.352 345.118 C 158.931 347.950,157.907 355.693,162.414 359.765 C 166.410 363.375,171.509 363.313,175.211 359.611 C 182.700 352.123,173.766 340.200,164.352 345.118 M115.787 349.813 C 119.779 353.806,114.925 360.146,110.119 357.216 C 107.848 355.831,107.065 353.394,108.192 351.215 C 109.829 348.050,113.369 347.396,115.787 349.813 M170.918 348.863 C 174.381 350.717,174.467 355.151,171.081 357.216 C 167.947 359.127,164.000 356.754,164.000 352.959 C 164.000 349.579,167.919 347.258,170.918 348.863 " stroke="none" fill="#6a3e28" fill-rule="evenodd"></path><path id="path1" d="M165.800 72.708 C 162.495 75.192,154.737 80.036,149.100 83.135 C 143.276 86.338,141.948 87.091,138.200 89.321 C 120.004 100.147,112.800 110.081,112.800 124.350 C 112.800 128.963,112.698 129.200,110.715 129.200 C 106.973 129.200,101.644 131.278,98.802 133.846 C 97.792 134.758,96.977 135.188,96.516 135.051 C 95.677 134.802,93.955 137.262,92.752 140.430 C 91.817 142.891,91.700 152.061,92.573 154.506 C 93.614 157.426,95.724 160.461,96.560 160.242 C 97.066 160.110,97.920 160.566,99.082 161.589 C 101.717 163.908,105.371 165.521,108.639 165.807 C 112.862 166.177,113.200 166.292,113.200 167.348 C 113.200 167.861,113.358 168.802,113.550 169.440 C 113.743 170.078,114.119 171.590,114.387 172.800 C 114.655 174.010,115.230 176.080,115.666 177.400 C 116.101 178.720,116.539 180.051,116.638 180.357 C 116.738 180.664,116.905 180.828,117.010 180.723 C 117.116 180.617,116.831 179.467,116.378 178.166 C 113.985 171.293,113.084 165.382,114.498 165.831 C 115.424 166.125,120.334 167.407,122.800 167.999 C 123.570 168.184,127.530 169.189,131.600 170.233 C 138.548 172.014,139.317 172.130,144.200 172.138 C 151.930 172.149,154.839 171.307,165.000 166.115 C 172.193 162.439,182.878 161.292,190.600 163.366 C 193.415 164.122,192.997 163.942,200.400 167.564 C 208.065 171.315,211.047 172.086,218.000 172.118 L 223.400 172.143 235.000 169.249 C 241.380 167.657,247.112 166.156,247.737 165.914 C 248.487 165.622,248.963 165.608,249.137 165.872 C 250.277 167.606,260.477 164.457,263.764 161.356 C 264.660 160.511,265.507 160.032,265.863 160.169 C 266.536 160.427,267.600 159.537,267.600 158.717 C 267.600 158.420,267.960 157.917,268.400 157.600 C 268.840 157.283,269.200 156.733,269.200 156.378 C 269.200 156.024,269.323 155.610,269.474 155.459 C 270.662 154.272,271.459 142.854,270.400 142.200 C 270.180 142.064,270.000 141.609,270.000 141.189 C 270.000 140.498,269.685 139.823,267.938 136.770 C 267.068 135.251,266.500 134.787,265.827 135.045 C 265.429 135.198,264.608 134.758,263.611 133.858 C 260.664 131.195,255.668 129.248,251.700 129.214 L 250.000 129.200 249.992 125.900 C 249.980 121.441,248.970 113.586,247.689 108.000 L 247.369 106.600 236.984 106.348 C 227.678 106.122,223.033 105.753,220.000 104.999 C 219.450 104.863,218.190 104.570,217.200 104.350 C 213.032 103.422,210.725 102.720,207.200 101.306 C 192.261 95.312,179.838 85.149,171.010 71.700 C 169.624 69.589,170.063 69.504,165.800 72.708 M149.400 109.752 C 160.288 111.897,167.974 117.784,164.325 121.184 C 163.116 122.311,161.448 122.205,159.472 120.875 C 149.063 113.873,137.741 114.005,127.538 121.246 C 125.186 122.916,122.320 121.722,122.320 119.073 C 122.320 117.266,122.723 116.744,125.584 114.844 C 129.548 112.211,132.496 110.999,138.200 109.659 C 140.630 109.088,146.264 109.135,149.400 109.752 M223.923 109.625 C 224.955 109.858,226.610 110.241,227.600 110.476 C 233.334 111.834,240.160 116.460,240.160 118.988 C 240.160 122.205,237.436 122.842,233.762 120.484 C 223.982 114.206,213.515 114.152,204.038 120.330 C 199.997 122.964,197.400 122.432,197.400 118.971 C 197.400 113.467,214.411 107.473,223.923 109.625 M147.288 128.752 C 151.977 130.762,154.467 136.471,152.601 140.936 C 148.632 150.436,134.449 147.795,134.409 137.549 C 134.382 130.756,141.162 126.126,147.288 128.752 M222.593 128.839 C 231.789 133.161,228.888 146.800,218.772 146.800 C 214.572 146.800,211.653 144.857,209.975 140.943 C 206.729 133.369,215.115 125.324,222.593 128.839 M248.619 168.327 C 248.455 169.277,248.417 170.150,248.534 170.268 C 248.826 170.559,249.326 167.773,249.100 167.121 C 249.000 166.835,248.784 167.377,248.619 168.327 M248.049 171.200 C 248.016 171.530,247.889 172.250,247.767 172.800 C 247.575 173.664,247.607 173.703,247.999 173.088 C 248.248 172.697,248.375 171.977,248.281 171.488 C 248.186 171.000,248.082 170.870,248.049 171.200 M247.073 174.953 C 246.923 175.345,246.811 175.966,246.825 176.333 C 246.842 176.775,246.981 176.674,247.237 176.034 C 247.449 175.503,247.561 174.882,247.485 174.654 C 247.409 174.427,247.224 174.561,247.073 174.953 M118.018 183.251 C 117.980 183.780,119.257 186.476,119.452 186.281 C 119.565 186.168,119.293 185.384,118.847 184.538 C 118.400 183.692,118.027 183.113,118.018 183.251 M242.439 186.873 C 240.577 190.651,239.622 192.336,238.900 193.116 C 238.625 193.414,238.400 193.811,238.400 194.000 C 238.400 194.189,238.169 194.581,237.887 194.871 C 237.605 195.162,236.943 196.030,236.416 196.800 C 234.355 199.811,229.628 204.979,226.170 208.000 C 224.720 209.266,223.908 209.906,221.400 211.756 C 220.759 212.229,220.699 212.447,221.100 212.853 C 221.503 213.262,221.600 213.245,221.600 212.768 C 221.600 212.442,223.210 210.855,225.178 209.240 C 230.152 205.159,234.957 199.872,238.714 194.347 C 240.430 191.822,244.540 184.007,244.285 183.752 C 244.172 183.639,243.341 185.043,242.439 186.873 M120.409 188.700 C 120.414 188.865,120.785 189.450,121.233 190.000 L 122.048 191.000 121.414 189.700 C 120.811 188.465,120.389 188.045,120.409 188.700 M122.450 192.100 C 123.432 193.946,127.361 199.313,129.345 201.518 C 133.253 205.862,139.200 211.244,139.200 210.437 C 139.200 210.197,139.040 210.000,138.845 210.000 C 137.448 210.000,127.794 199.515,124.205 194.100 C 122.315 191.249,121.509 190.330,122.450 192.100 M140.249 211.745 C 141.009 212.787,141.600 213.094,141.600 212.446 C 141.600 212.251,141.127 211.782,140.549 211.404 L 139.499 210.715 140.249 211.745 M156.339 227.634 L 156.479 234.868 158.679 239.534 C 159.889 242.100,161.485 245.505,162.226 247.100 L 163.573 250.000 181.289 250.000 L 199.005 250.000 199.571 248.700 C 199.882 247.985,201.072 245.420,202.215 243.000 C 206.228 234.507,205.909 235.777,206.062 227.700 C 206.138 223.685,206.087 220.400,205.949 220.400 C 205.811 220.400,205.057 220.668,204.275 220.995 C 192.630 225.860,173.279 226.046,159.512 221.425 C 157.833 220.861,156.401 220.400,156.329 220.400 C 156.258 220.400,156.263 223.655,156.339 227.634 M238.100 261.065 C 237.825 261.176,237.600 261.454,237.600 261.682 C 237.600 261.938,237.824 261.912,238.184 261.614 C 238.530 261.326,239.303 261.225,240.084 261.364 C 241.077 261.540,241.203 261.507,240.600 261.227 C 239.712 260.815,238.856 260.760,238.100 261.065 M243.633 262.549 C 244.045 262.917,246.400 264.000,246.400 263.821 C 246.400 263.590,244.182 262.400,243.753 262.400 C 243.596 262.400,243.542 262.467,243.633 262.549 M236.273 265.753 C 236.123 266.145,236.011 266.766,236.025 267.133 C 236.042 267.575,236.181 267.474,236.437 266.834 C 236.649 266.303,236.761 265.682,236.685 265.454 C 236.609 265.227,236.424 265.361,236.273 265.753 M250.400 266.518 C 250.400 266.620,251.247 267.397,252.281 268.245 C 253.316 269.093,254.034 269.578,253.876 269.323 C 253.540 268.779,250.400 266.245,250.400 266.518 M235.390 271.338 C 235.239 272.552,235.195 273.782,235.293 274.072 C 235.390 274.362,235.601 273.456,235.760 272.058 C 235.919 270.660,235.963 269.430,235.858 269.324 C 235.752 269.219,235.542 270.125,235.390 271.338 M254.400 269.638 C 254.400 269.937,260.507 276.026,260.657 275.877 C 260.722 275.811,259.341 274.331,257.588 272.588 C 255.835 270.845,254.400 269.518,254.400 269.638 M274.600 272.848 C 273.940 273.059,272.140 273.627,270.600 274.109 C 269.060 274.590,266.762 275.483,265.494 276.092 C 262.943 277.317,262.036 277.446,261.199 276.700 C 260.722 276.275,260.718 276.304,261.168 276.900 C 261.850 277.801,262.866 277.786,264.716 276.848 C 266.634 275.876,273.272 273.604,274.247 273.586 C 274.661 273.578,275.450 273.314,276.000 273.000 C 277.133 272.352,276.396 272.272,274.600 272.848 M235.286 287.400 C 235.271 288.500,235.403 290.210,235.580 291.200 L 235.900 293.000 235.910 291.400 C 235.916 290.520,235.784 288.810,235.617 287.600 L 235.313 285.400 235.286 287.400 M236.272 297.000 C 236.399 298.100,236.569 299.075,236.651 299.167 C 236.932 299.482,236.720 296.999,236.380 296.000 C 236.151 295.326,236.116 295.651,236.272 297.000 M236.856 301.000 C 236.856 301.440,237.011 302.160,237.200 302.600 L 237.544 303.400 237.544 302.600 C 237.544 302.160,237.389 301.440,237.200 301.000 L 236.856 300.200 236.856 301.000 M237.634 304.800 C 237.646 305.130,237.811 305.760,238.000 306.200 L 238.344 307.000 238.366 306.200 C 238.378 305.760,238.213 305.130,238.000 304.800 C 237.655 304.267,237.615 304.267,237.634 304.800 M230.225 324.921 C 230.368 325.293,229.958 326.299,229.234 327.350 C 228.021 329.114,227.613 330.800,228.400 330.800 C 228.620 330.800,228.800 330.978,228.800 331.197 C 228.800 331.415,229.431 332.420,230.203 333.431 C 230.974 334.441,231.486 335.461,231.341 335.696 C 231.184 335.949,231.265 336.007,231.538 335.838 C 232.275 335.383,232.108 334.949,230.191 332.345 C 228.424 329.945,228.397 329.864,229.043 328.878 C 231.086 325.760,231.247 325.337,230.598 324.798 C 230.082 324.370,230.021 324.390,230.225 324.921 M237.183 341.300 C 238.164 342.345,239.019 343.200,239.083 343.200 C 239.384 343.200,239.066 342.841,237.300 341.183 L 235.400 339.400 237.183 341.300 M240.604 344.738 C 242.780 347.174,253.359 355.192,253.792 354.734 C 253.861 354.660,252.722 353.801,251.259 352.824 C 248.051 350.681,243.653 347.276,241.204 345.040 C 239.785 343.745,239.659 343.681,240.604 344.738 M62.000 369.000 L 62.000 388.000 79.400 388.000 L 96.800 388.000 96.800 369.000 L 96.800 350.000 79.400 350.000 L 62.000 350.000 62.000 369.000 M255.200 355.564 C 255.750 356.014,256.380 356.383,256.600 356.385 C 257.028 356.388,256.305 355.834,255.000 355.160 C 254.469 354.885,254.536 355.021,255.200 355.564 M253.053 363.700 L 252.333 365.000 253.158 364.000 C 253.889 363.113,254.214 362.400,253.886 362.400 C 253.824 362.400,253.449 362.985,253.053 363.700 M251.414 366.235 C 251.041 366.804,250.827 367.361,250.939 367.472 C 251.050 367.583,251.429 367.118,251.781 366.437 C 252.559 364.933,252.344 364.815,251.414 366.235 M249.781 369.237 C 249.429 369.918,249.212 370.545,249.299 370.632 C 249.386 370.719,249.756 370.162,250.122 369.395 C 250.944 367.670,250.659 367.538,249.781 369.237 M246.249 378.615 C 246.112 378.973,246.018 379.656,246.041 380.133 C 246.067 380.681,246.203 380.486,246.410 379.603 C 246.760 378.116,246.665 377.533,246.249 378.615 M245.453 382.836 C 245.314 383.531,245.225 385.023,245.256 386.150 C 245.303 387.858,245.363 387.667,245.618 385.000 C 245.941 381.619,245.874 380.732,245.453 382.836 " stroke="none" fill="#f8c6a4" fill-rule="evenodd"></path><path id="path2" d="M163.400 74.235 L 162.200 75.266 163.500 74.406 C 164.215 73.933,164.800 73.468,164.800 73.373 C 164.800 73.073,164.631 73.178,163.400 74.235 M177.200 80.125 C 177.200 80.194,177.785 80.779,178.500 81.425 L 179.800 82.600 178.625 81.300 C 177.530 80.088,177.200 79.816,177.200 80.125 M183.200 86.125 C 183.200 86.194,183.785 86.779,184.500 87.425 L 185.800 88.600 184.625 87.300 C 183.530 86.088,183.200 85.816,183.200 86.125 M122.788 100.300 L 120.200 103.000 122.900 100.412 C 125.408 98.007,125.783 97.600,125.488 97.600 C 125.427 97.600,124.212 98.815,122.788 100.300 M229.300 106.291 C 230.125 106.378,231.475 106.378,232.300 106.291 C 233.125 106.205,232.450 106.134,230.800 106.134 C 229.150 106.134,228.475 106.205,229.300 106.291 M141.500 109.495 C 142.655 109.576,144.545 109.576,145.700 109.495 C 146.855 109.414,145.910 109.348,143.600 109.348 C 141.290 109.348,140.345 109.414,141.500 109.495 M216.700 109.495 C 217.855 109.576,219.745 109.576,220.900 109.495 C 222.055 109.414,221.110 109.348,218.800 109.348 C 216.490 109.348,215.545 109.414,216.700 109.495 M248.456 112.000 C 248.456 112.330,248.611 112.960,248.800 113.400 C 249.017 113.904,249.144 113.978,249.144 113.600 C 249.144 113.270,248.989 112.640,248.800 112.200 C 248.583 111.696,248.456 111.622,248.456 112.000 M123.201 116.598 C 122.686 117.148,122.339 117.664,122.432 117.746 C 122.524 117.828,123.019 117.378,123.530 116.747 C 124.676 115.335,124.474 115.244,123.201 116.598 M249.693 120.000 C 249.693 120.770,249.775 121.085,249.876 120.700 C 249.976 120.315,249.976 119.685,249.876 119.300 C 249.775 118.915,249.693 119.230,249.693 120.000 M112.546 124.600 C 112.547 126.800,112.614 127.649,112.695 126.487 C 112.776 125.324,112.776 123.524,112.693 122.487 C 112.611 121.449,112.545 122.400,112.546 124.600 M219.633 128.144 C 219.725 128.223,220.340 128.408,221.000 128.556 C 221.876 128.752,222.038 128.715,221.600 128.418 C 221.060 128.053,219.232 127.798,219.633 128.144 M109.705 129.087 C 110.314 129.179,111.214 129.177,111.705 129.082 C 112.197 128.987,111.700 128.911,110.600 128.914 C 109.500 128.917,109.097 128.995,109.705 129.087 M251.200 129.064 C 256.381 129.569,260.714 131.240,263.601 133.849 C 264.469 134.632,265.408 135.181,265.689 135.068 C 266.060 134.919,266.040 134.855,265.617 134.832 C 265.296 134.814,264.396 134.188,263.617 133.440 C 260.854 130.790,255.533 128.770,251.600 128.878 C 250.093 128.920,250.028 128.950,251.200 129.064 M105.656 129.659 C 104.917 129.872,104.383 130.117,104.470 130.203 C 104.557 130.290,105.521 130.116,106.614 129.816 C 107.706 129.517,108.240 129.272,107.800 129.272 C 107.360 129.272,106.395 129.446,105.656 129.659 M136.975 130.900 L 135.800 132.200 137.100 131.025 C 138.312 129.930,138.584 129.600,138.275 129.600 C 138.206 129.600,137.621 130.185,136.975 130.900 M225.200 131.000 C 225.946 131.770,226.647 132.400,226.757 132.400 C 226.867 132.400,226.346 131.770,225.600 131.000 C 224.854 130.230,224.153 129.600,224.043 129.600 C 223.933 129.600,224.454 130.230,225.200 131.000 M102.300 131.029 C 100.749 131.870,100.925 132.161,102.500 131.359 C 104.008 130.593,104.275 130.394,103.767 130.416 C 103.565 130.425,102.905 130.701,102.300 131.029 M98.562 133.647 C 98.143 134.113,97.440 134.642,97.000 134.822 C 96.434 135.054,96.383 135.157,96.825 135.175 C 97.169 135.189,97.968 134.660,98.600 134.000 C 99.232 133.340,99.654 132.800,99.537 132.800 C 99.420 132.800,98.981 133.181,98.562 133.647 M209.449 135.015 C 209.312 135.373,209.227 136.596,209.261 137.733 L 209.322 139.800 209.587 137.200 C 209.872 134.418,209.844 133.987,209.449 135.015 M149.600 144.474 C 148.610 145.376,148.160 145.924,148.600 145.692 C 149.352 145.294,151.952 142.781,151.575 142.816 C 151.479 142.825,150.590 143.571,149.600 144.474 M91.728 147.600 C 91.728 149.030,91.801 149.615,91.889 148.900 C 91.978 148.185,91.978 147.015,91.889 146.300 C 91.801 145.585,91.728 146.170,91.728 147.600 M98.509 161.543 C 99.439 162.392,100.650 163.297,101.200 163.555 L 102.200 164.023 101.204 163.312 C 100.656 162.920,99.554 162.015,98.755 161.300 C 97.956 160.585,97.194 160.000,97.060 160.000 C 96.927 160.000,97.579 160.694,98.509 161.543 M264.460 160.642 C 263.648 161.559,264.071 161.636,265.144 160.766 C 265.683 160.329,265.855 160.007,265.544 160.015 C 265.245 160.024,264.757 160.305,264.460 160.642 M262.894 162.066 C 262.637 162.323,261.566 163.040,260.514 163.660 C 259.461 164.279,258.790 164.789,259.022 164.793 C 259.564 164.802,263.019 162.616,263.376 162.039 C 263.731 161.464,263.482 161.478,262.894 162.066 M107.200 166.008 C 108.192 166.318,112.687 166.533,112.367 166.255 C 112.275 166.176,110.850 166.017,109.200 165.903 C 107.507 165.786,106.636 165.831,107.200 166.008 M252.200 166.000 L 249.800 166.266 252.000 166.293 C 253.210 166.308,254.650 166.176,255.200 166.000 C 256.414 165.611,255.713 165.611,252.200 166.000 M332.600 260.800 C 332.464 261.020,332.003 261.200,331.576 261.200 C 331.149 261.200,330.800 261.380,330.800 261.600 C 330.800 261.820,330.440 262.000,330.000 262.000 C 329.560 262.000,329.200 262.136,329.200 262.302 C 329.200 262.469,328.615 262.860,327.900 263.172 C 327.185 263.484,326.309 264.068,325.953 264.470 C 325.597 264.871,325.084 265.200,324.814 265.200 C 324.543 265.200,323.817 265.740,323.200 266.400 C 322.583 267.060,321.896 267.600,321.673 267.600 C 321.155 267.600,313.600 275.026,313.600 275.535 C 313.600 276.502,311.663 276.403,309.611 275.333 C 309.055 275.042,308.206 274.804,307.724 274.802 C 307.242 274.801,306.736 274.620,306.600 274.400 C 306.464 274.180,305.913 274.000,305.376 274.000 C 304.839 274.000,304.400 273.820,304.400 273.600 C 304.400 273.380,303.860 273.200,303.200 273.200 C 302.540 273.200,302.000 273.020,302.000 272.800 C 302.000 272.580,301.100 272.400,300.000 272.400 C 298.900 272.400,298.000 272.220,298.000 272.000 C 298.000 271.771,296.800 271.600,295.200 271.600 C 293.600 271.600,292.400 271.429,292.400 271.200 C 292.400 270.955,290.459 270.800,287.376 270.800 C 284.129 270.800,282.440 270.941,282.600 271.200 C 282.754 271.450,281.943 271.600,280.441 271.600 C 278.535 271.600,277.730 271.808,276.562 272.600 C 275.751 273.150,274.730 273.600,274.292 273.600 C 273.301 273.600,266.720 275.832,264.716 276.848 C 262.477 277.983,262.358 277.922,257.718 273.281 C 248.513 264.074,239.321 259.182,237.646 262.600 C 234.430 269.162,234.688 293.154,238.101 304.922 C 239.151 308.540,238.804 309.976,235.058 317.538 C 232.762 322.172,232.333 322.992,231.680 324.000 C 231.323 324.550,230.994 325.234,230.948 325.521 C 230.902 325.807,230.551 326.527,230.167 327.121 C 228.220 330.131,228.218 329.665,230.191 332.345 C 231.186 333.696,232.000 334.974,232.000 335.183 C 232.000 335.618,232.396 336.057,237.600 341.391 C 243.219 347.150,249.473 352.047,255.700 355.561 C 257.768 356.728,258.540 357.699,257.693 358.067 C 257.244 358.262,254.398 361.829,253.646 363.140 C 247.937 373.083,245.600 379.737,245.600 386.044 L 245.600 388.000 287.800 388.000 L 330.000 388.000 330.000 384.224 C 330.000 382.137,329.821 380.337,329.600 380.200 C 329.380 380.064,329.200 379.481,329.200 378.905 C 329.200 377.592,328.196 374.356,327.153 372.305 C 326.959 371.923,326.800 371.248,326.800 370.805 C 326.800 370.362,326.665 369.999,326.500 369.997 C 326.141 369.993,325.200 368.056,325.200 367.320 C 325.200 367.034,325.032 366.800,324.827 366.800 C 324.622 366.800,324.329 366.395,324.176 365.900 C 323.766 364.575,320.404 359.661,319.329 358.815 C 318.094 357.844,318.158 357.397,319.616 356.793 C 320.285 356.516,321.545 355.773,322.416 355.142 C 323.287 354.511,324.000 354.114,324.000 354.259 C 324.000 354.404,324.336 354.135,324.747 353.661 C 325.158 353.188,325.698 352.800,325.947 352.800 C 326.196 352.800,326.400 352.620,326.400 352.400 C 326.400 352.180,326.579 352.000,326.797 352.000 C 327.015 352.000,327.629 351.622,328.161 351.159 C 328.693 350.696,329.234 350.336,329.363 350.358 C 329.492 350.380,330.517 349.498,331.640 348.399 C 332.762 347.300,333.853 346.400,334.064 346.400 C 334.275 346.400,334.360 346.258,334.252 346.085 C 334.145 345.912,334.586 345.536,335.231 345.250 C 335.876 344.965,336.303 344.566,336.179 344.365 C 336.054 344.164,336.188 343.994,336.476 343.988 C 336.764 343.981,337.579 343.216,338.287 342.288 C 338.994 341.359,340.389 339.746,341.387 338.701 C 342.384 337.657,343.200 336.622,343.200 336.401 C 343.200 336.181,343.380 336.000,343.600 336.000 C 343.820 336.000,344.000 335.770,344.000 335.488 C 344.000 335.207,344.360 334.717,344.800 334.400 C 345.240 334.083,345.600 333.543,345.600 333.200 C 345.600 332.857,345.960 332.317,346.400 332.000 C 346.976 331.585,347.200 330.965,347.200 329.787 C 347.200 328.704,346.930 327.861,346.400 327.292 C 345.960 326.820,345.600 326.261,345.600 326.050 C 345.600 325.839,345.433 325.607,345.230 325.533 C 345.026 325.460,344.801 325.137,344.730 324.816 C 344.658 324.494,344.285 323.875,343.900 323.440 C 343.515 323.005,343.200 322.413,343.200 322.125 C 343.200 321.836,343.020 321.600,342.800 321.600 C 342.580 321.600,342.400 321.240,342.400 320.800 C 342.400 320.360,342.220 320.000,342.000 320.000 C 341.780 320.000,341.600 319.712,341.600 319.360 C 341.600 319.009,341.355 318.154,341.056 317.460 C 339.932 314.854,339.530 313.800,339.661 313.800 C 339.736 313.800,339.393 313.232,338.898 312.538 C 338.404 311.844,338.000 311.000,338.000 310.662 C 338.000 310.324,337.803 309.925,337.562 309.776 C 337.146 309.519,337.202 308.581,337.802 305.800 C 337.944 305.140,338.216 304.240,338.407 303.800 C 338.598 303.360,338.851 302.190,338.970 301.200 C 339.297 298.463,340.037 292.750,340.238 291.400 C 340.672 288.495,340.506 270.515,340.026 268.400 C 338.269 260.655,338.115 260.400,335.205 260.400 C 333.908 260.400,332.736 260.580,332.600 260.800 M268.126 319.250 C 274.191 322.373,272.390 331.200,265.688 331.200 C 259.350 331.200,257.087 322.896,262.522 319.582 C 263.948 318.713,266.759 318.546,268.126 319.250 M312.398 319.647 C 314.222 320.672,315.600 322.976,315.600 325.000 C 315.600 327.024,314.222 329.328,312.398 330.353 C 307.034 333.368,301.030 327.371,304.043 322.008 C 305.716 319.033,309.435 317.982,312.398 319.647 " stroke="none" fill="#fbb342" fill-rule="evenodd"></path><path id="path3" d="M154.800 221.511 C 154.470 221.896,153.705 222.464,153.100 222.773 C 152.495 223.082,152.000 223.575,152.000 223.868 C 152.000 224.160,151.848 224.400,151.661 224.400 C 151.475 224.400,150.890 224.758,150.361 225.194 C 149.833 225.631,148.910 226.396,148.312 226.894 C 147.714 227.393,147.219 228.036,147.212 228.324 C 147.205 228.612,147.020 228.736,146.800 228.600 C 146.580 228.464,146.400 228.593,146.400 228.887 C 146.400 229.182,146.032 229.737,145.583 230.122 C 145.134 230.507,144.874 230.997,145.007 231.211 C 145.139 231.425,144.956 231.600,144.600 231.600 C 144.244 231.600,144.064 231.780,144.200 232.000 C 144.336 232.220,144.181 232.400,143.855 232.400 C 143.529 232.400,143.067 232.991,142.829 233.713 C 142.212 235.580,140.065 237.200,138.205 237.200 C 137.652 237.200,137.200 237.380,137.200 237.600 C 137.200 237.820,136.660 238.000,136.000 238.000 C 135.340 238.000,134.800 238.180,134.800 238.400 C 134.800 238.620,134.440 238.800,134.000 238.800 C 133.560 238.800,133.200 238.980,133.200 239.200 C 133.200 239.420,132.660 239.600,132.000 239.600 C 131.340 239.600,130.800 239.780,130.800 240.000 C 130.800 240.220,130.440 240.400,130.000 240.400 C 129.560 240.400,129.200 240.580,129.200 240.800 C 129.200 241.020,128.839 241.200,128.398 241.200 C 127.957 241.200,126.663 241.650,125.523 242.200 C 124.383 242.750,123.214 243.200,122.925 243.200 C 122.636 243.200,122.400 243.380,122.400 243.600 C 122.400 243.820,122.040 244.000,121.600 244.000 C 121.160 244.000,120.800 244.180,120.800 244.400 C 120.800 244.620,120.440 244.800,120.000 244.800 C 119.560 244.800,119.200 244.980,119.200 245.200 C 119.200 245.420,118.917 245.600,118.571 245.600 C 118.226 245.600,117.673 245.870,117.343 246.199 C 117.014 246.529,116.268 246.918,115.685 247.064 C 115.103 247.211,114.272 247.661,113.838 248.065 C 113.404 248.469,112.813 248.800,112.525 248.800 C 112.236 248.800,112.000 248.980,112.000 249.200 C 112.000 249.420,111.730 249.600,111.400 249.600 C 111.070 249.600,110.800 249.780,110.800 250.000 C 110.800 250.220,110.557 250.400,110.259 250.400 C 109.962 250.400,109.154 250.940,108.463 251.600 C 107.772 252.260,106.975 252.800,106.692 252.800 C 106.409 252.800,105.917 253.160,105.600 253.600 C 105.283 254.040,104.775 254.400,104.472 254.400 C 104.169 254.400,103.417 254.940,102.800 255.600 C 102.183 256.260,101.475 256.800,101.225 256.800 C 100.759 256.800,100.300 257.174,97.200 260.078 C 96.210 261.005,95.333 261.706,95.252 261.635 C 95.039 261.450,84.223 272.685,84.084 273.235 C 84.021 273.487,83.301 274.358,82.484 275.170 C 81.668 275.982,80.745 277.131,80.432 277.723 C 80.120 278.316,79.720 278.800,79.543 278.800 C 79.246 278.800,77.973 280.930,77.992 281.396 C 77.996 281.508,77.685 281.947,77.300 282.371 C 76.034 283.767,75.600 284.362,75.600 284.703 C 75.600 285.297,74.611 287.194,74.300 287.197 C 74.135 287.199,73.997 287.605,73.994 288.100 C 73.989 288.828,73.914 288.885,73.600 288.400 C 73.285 287.912,73.211 287.964,73.206 288.676 C 73.203 289.158,73.020 289.664,72.800 289.800 C 72.580 289.936,72.400 290.497,72.400 291.047 C 72.400 291.612,72.226 291.940,72.000 291.800 C 71.780 291.664,71.600 291.833,71.600 292.176 C 71.600 292.519,71.420 292.800,71.200 292.800 C 70.980 292.800,70.800 293.261,70.800 293.824 C 70.800 294.404,70.627 294.740,70.400 294.600 C 70.180 294.464,70.000 294.723,70.000 295.176 C 70.000 295.629,69.820 296.000,69.600 296.000 C 69.380 296.000,69.200 296.551,69.200 297.224 C 69.200 297.937,69.033 298.344,68.800 298.200 C 68.580 298.064,68.400 298.323,68.400 298.776 C 68.400 299.229,68.220 299.600,68.000 299.600 C 67.780 299.600,67.600 300.140,67.600 300.800 C 67.600 301.460,67.459 302.000,67.287 302.000 C 67.115 302.000,66.934 302.487,66.885 303.082 C 66.836 303.678,66.616 304.344,66.398 304.562 C 66.179 304.781,66.000 305.374,66.000 305.880 C 66.000 306.386,65.820 306.800,65.600 306.800 C 65.380 306.800,65.200 307.419,65.200 308.176 C 65.200 308.933,65.020 309.664,64.800 309.800 C 64.580 309.936,64.400 310.677,64.400 311.447 C 64.400 312.217,64.255 312.757,64.077 312.647 C 63.899 312.538,63.709 313.195,63.656 314.108 C 63.602 315.022,63.416 315.956,63.243 316.185 C 63.070 316.413,62.884 317.590,62.829 318.800 C 62.775 320.010,62.575 321.188,62.385 321.417 C 62.195 321.646,62.027 328.171,62.010 335.917 L 61.981 350.000 79.390 350.000 L 96.800 350.000 96.800 369.000 L 96.800 388.000 171.000 388.000 L 245.200 388.000 245.200 386.031 C 245.200 378.627,250.049 366.704,255.884 359.757 C 257.841 357.427,257.961 356.934,256.700 356.398 C 252.740 354.714,245.330 349.264,239.927 344.060 L 235.214 339.520 233.252 341.660 C 223.655 352.128,206.400 345.378,206.400 331.155 C 206.400 325.056,209.649 320.016,215.486 317.058 C 216.617 316.484,217.657 315.832,217.795 315.608 C 218.224 314.914,225.436 315.093,226.157 315.815 C 226.495 316.153,227.385 316.685,228.134 316.998 C 228.883 317.311,230.347 318.217,231.387 319.011 C 232.427 319.805,233.337 320.397,233.408 320.326 C 233.589 320.145,237.335 312.080,237.976 310.492 C 238.502 309.188,238.431 308.021,237.607 304.400 C 234.407 290.345,234.286 271.797,237.334 262.502 C 238.649 258.491,248.385 263.480,257.931 273.056 C 262.588 277.729,262.280 277.610,265.682 276.031 C 268.471 274.736,271.923 273.536,275.062 272.771 C 277.298 272.226,277.423 271.797,275.819 270.172 C 275.369 269.716,274.346 268.590,273.546 267.671 C 272.746 266.752,271.885 266.000,271.633 266.000 C 271.381 266.000,271.057 265.685,270.912 265.300 C 270.606 264.485,268.482 262.400,267.958 262.400 C 267.761 262.400,267.600 262.100,267.600 261.733 C 267.600 261.367,267.491 261.176,267.358 261.309 C 267.224 261.442,266.676 261.112,266.139 260.576 C 265.603 260.039,265.029 259.600,264.865 259.600 C 264.701 259.600,263.899 258.970,263.082 258.200 C 262.266 257.430,261.401 256.800,261.160 256.800 C 260.918 256.800,260.217 256.260,259.600 255.600 C 258.983 254.940,258.291 254.400,258.062 254.400 C 257.833 254.400,257.410 254.085,257.123 253.700 C 256.835 253.315,256.341 252.944,256.025 252.875 C 255.709 252.806,255.148 252.401,254.778 251.975 C 254.409 251.549,253.812 251.200,253.453 251.200 C 253.094 251.200,252.800 251.055,252.800 250.879 C 252.800 250.702,251.917 250.117,250.838 249.579 C 249.759 249.041,248.941 248.496,249.020 248.368 C 249.099 248.240,248.542 247.891,247.782 247.593 C 247.022 247.295,246.400 246.904,246.400 246.725 C 246.400 246.546,246.040 246.400,245.600 246.400 C 245.160 246.400,244.800 246.220,244.800 246.000 C 244.800 245.780,244.440 245.600,244.000 245.600 C 243.560 245.600,243.200 245.420,243.200 245.200 C 243.200 244.980,242.885 244.796,242.500 244.791 C 242.115 244.786,241.350 244.430,240.800 244.000 C 240.250 243.570,239.620 243.212,239.400 243.205 C 239.180 243.198,238.100 242.750,237.000 242.209 C 235.900 241.668,234.696 241.219,234.324 241.213 C 233.952 241.206,233.536 241.020,233.400 240.800 C 233.264 240.580,232.803 240.400,232.376 240.400 C 231.949 240.400,231.600 240.220,231.600 240.000 C 231.600 239.780,231.060 239.600,230.400 239.600 C 229.740 239.600,229.200 239.420,229.200 239.200 C 229.200 238.980,228.840 238.800,228.400 238.800 C 227.960 238.800,227.600 238.620,227.600 238.400 C 227.600 238.180,227.060 238.000,226.400 238.000 C 225.740 238.000,225.200 237.820,225.200 237.600 C 225.200 237.380,224.660 237.200,224.000 237.200 C 223.340 237.200,222.800 237.020,222.800 236.800 C 222.800 236.580,222.452 236.400,222.027 236.400 C 221.602 236.400,221.140 236.040,221.000 235.600 C 220.860 235.160,220.578 234.800,220.373 234.800 C 220.168 234.800,220.000 234.522,220.000 234.182 C 220.000 233.454,218.195 231.538,217.842 231.891 C 217.709 232.024,217.600 231.833,217.600 231.467 C 217.600 230.381,217.538 230.293,215.153 228.000 C 210.876 223.887,209.170 222.400,208.732 222.400 C 208.491 222.400,207.957 222.011,207.544 221.536 C 206.359 220.169,206.214 220.820,205.979 228.532 C 205.808 234.142,205.610 236.074,205.110 237.000 C 204.419 238.282,200.703 246.138,199.764 248.300 C 199.454 249.015,198.945 250.185,198.634 250.900 C 198.323 251.615,197.222 254.000,196.189 256.200 C 195.155 258.400,193.813 261.280,193.206 262.600 C 192.167 264.863,190.582 268.222,186.602 276.600 C 185.661 278.580,184.153 281.775,183.250 283.700 C 181.351 287.747,181.116 287.862,179.969 285.300 C 179.502 284.255,178.345 281.780,177.400 279.800 C 176.454 277.820,175.053 274.850,174.287 273.200 C 173.520 271.550,171.953 268.220,170.804 265.800 C 169.656 263.380,168.267 260.410,167.718 259.200 C 167.169 257.990,166.018 255.540,165.160 253.755 C 164.302 251.970,163.600 250.408,163.600 250.284 C 163.600 250.048,162.386 247.396,158.639 239.450 L 156.400 234.700 156.395 228.650 C 156.388 220.988,156.152 219.933,154.800 221.511 M217.400 321.154 C 207.993 325.486,209.068 339.048,219.046 341.925 C 223.729 343.276,229.598 340.685,231.564 336.400 L 232.023 335.400 231.327 336.400 C 228.312 340.731,222.954 343.026,219.319 341.544 C 216.301 340.313,215.675 339.942,214.297 338.564 C 208.497 332.764,211.342 323.283,219.600 320.888 C 220.773 320.548,220.838 320.476,220.000 320.450 C 219.450 320.432,218.280 320.749,217.400 321.154 M224.000 320.857 C 226.230 321.470,227.813 322.305,229.197 323.597 C 230.865 325.155,231.290 325.155,229.797 323.597 C 228.380 322.118,225.000 320.387,223.621 320.436 C 222.750 320.467,222.806 320.529,224.000 320.857 M117.200 334.847 L 117.200 344.493 116.300 344.187 C 114.736 343.654,109.942 343.498,109.475 343.965 C 108.120 345.320,108.000 344.577,108.000 334.800 L 108.000 325.200 112.600 325.200 L 117.200 325.200 117.200 334.847 M173.600 334.580 C 173.600 343.092,173.535 343.998,172.900 344.368 C 172.514 344.593,172.424 344.781,172.699 344.788 C 173.616 344.810,176.313 347.602,177.161 349.407 C 180.572 356.664,172.806 364.869,165.440 361.791 C 155.730 357.734,158.884 343.394,169.329 344.110 C 171.068 344.229,171.918 344.158,171.674 343.914 C 171.256 343.496,166.348 343.693,164.900 344.187 L 164.000 344.493 164.000 334.847 L 164.000 325.200 168.800 325.200 L 173.600 325.200 173.600 334.580 M116.730 345.040 C 122.457 347.894,123.440 355.697,118.606 359.941 C 109.910 367.576,98.032 355.692,105.677 347.007 C 108.385 343.931,112.894 343.128,116.730 345.040 M109.846 349.235 C 106.874 351.573,107.002 355.315,110.119 357.216 C 113.490 359.271,117.200 356.978,117.200 352.840 C 117.200 349.282,112.632 347.044,109.846 349.235 M165.413 349.813 C 161.521 353.705,166.396 360.073,171.081 357.216 C 175.529 354.504,173.700 348.400,168.440 348.400 C 167.127 348.400,166.564 348.663,165.413 349.813 M115.440 350.160 C 117.535 352.255,117.202 355.279,114.710 356.798 C 112.329 358.250,110.005 357.536,108.500 354.890 C 106.185 350.820,112.081 346.801,115.440 350.160 M170.813 349.407 C 172.821 350.445,173.733 353.057,172.737 354.918 C 170.963 358.233,166.653 358.397,165.007 355.213 C 162.980 351.295,166.895 347.380,170.813 349.407 " stroke="none" fill="#8bb4e3" fill-rule="evenodd"></path><path id="path4" d="M173.800 162.957 C 170.578 163.662,167.889 164.625,165.000 166.109 C 154.932 171.279,151.930 172.149,144.200 172.138 C 139.317 172.130,138.548 172.014,131.600 170.233 C 127.530 169.189,123.570 168.184,122.800 167.999 C 120.334 167.407,115.424 166.125,114.498 165.831 C 111.099 164.752,117.873 184.690,124.013 193.836 C 128.426 200.409,135.923 208.372,140.558 211.409 C 141.304 211.898,141.550 212.328,141.383 212.853 C 141.221 213.365,141.343 213.600,141.773 213.600 C 142.118 213.600,142.400 213.750,142.400 213.932 C 142.400 214.115,142.895 214.520,143.500 214.832 C 144.105 215.145,144.949 215.715,145.375 216.100 C 145.802 216.485,146.387 216.800,146.675 216.800 C 146.964 216.800,147.200 216.980,147.200 217.200 C 147.200 217.420,147.560 217.600,148.000 217.600 C 148.440 217.600,148.800 217.780,148.800 218.000 C 148.800 218.220,149.052 218.400,149.359 218.400 C 149.667 218.400,150.970 218.953,152.254 219.629 C 153.765 220.423,154.945 220.787,155.595 220.659 C 156.148 220.550,157.942 220.908,159.583 221.455 C 173.315 226.035,192.665 225.845,204.218 221.018 C 205.012 220.686,206.164 220.542,206.971 220.673 C 207.954 220.832,208.550 220.708,209.012 220.245 C 209.371 219.886,209.815 219.685,209.998 219.799 C 210.182 219.912,210.392 219.869,210.466 219.702 C 210.658 219.269,213.969 217.600,214.638 217.600 C 214.947 217.600,215.200 217.420,215.200 217.200 C 215.200 216.980,215.520 216.800,215.912 216.800 C 216.303 216.800,216.883 216.440,217.200 216.000 C 217.517 215.560,218.057 215.200,218.400 215.200 C 218.743 215.200,219.283 214.840,219.600 214.400 C 219.917 213.960,220.519 213.600,220.937 213.600 C 221.591 213.600,221.623 213.509,221.164 212.957 C 220.710 212.409,220.747 212.228,221.415 211.740 C 224.793 209.270,226.769 207.598,229.386 204.994 C 231.491 202.900,235.202 198.574,236.416 196.800 C 236.943 196.030,237.605 195.162,237.887 194.871 C 238.169 194.581,238.400 194.189,238.400 194.000 C 238.400 193.811,238.625 193.414,238.900 193.116 C 239.791 192.152,243.737 184.570,244.789 181.800 C 244.956 181.360,245.279 180.550,245.506 180.000 C 246.911 176.600,249.472 166.138,249.012 165.679 C 248.909 165.576,248.325 165.686,247.713 165.924 C 247.101 166.161,241.380 167.657,235.000 169.249 L 223.400 172.143 218.000 172.118 C 211.047 172.086,208.065 171.315,200.400 167.564 C 193.004 163.946,193.418 164.123,190.600 163.359 C 187.376 162.485,177.082 162.239,173.800 162.957 M163.600 250.255 C 163.600 250.395,164.302 251.970,165.160 253.755 C 166.018 255.540,167.169 257.990,167.718 259.200 C 168.267 260.410,169.656 263.380,170.804 265.800 C 171.953 268.220,173.520 271.550,174.287 273.200 C 175.053 274.850,176.454 277.820,177.400 279.800 C 178.345 281.780,179.502 284.255,179.969 285.300 C 181.116 287.862,181.351 287.747,183.248 283.700 C 184.994 279.975,186.352 277.110,190.564 268.261 C 192.014 265.214,193.200 262.673,193.200 262.613 C 193.200 262.451,198.352 251.512,198.811 250.700 C 199.185 250.038,198.243 250.000,181.403 250.000 C 171.612 250.000,163.600 250.115,163.600 250.255 M219.524 320.980 C 212.484 322.949,209.393 329.852,212.639 336.357 C 214.196 339.480,219.802 342.536,222.667 341.824 C 223.290 341.670,224.385 341.446,225.100 341.328 C 225.815 341.209,226.400 340.952,226.400 340.756 C 226.400 340.560,226.635 340.400,226.922 340.400 C 227.687 340.400,230.176 337.999,230.936 336.526 C 231.587 335.266,231.579 335.234,230.197 333.423 C 229.429 332.416,228.800 331.415,228.800 331.197 C 228.800 330.978,228.620 330.800,228.400 330.800 C 227.611 330.800,228.023 329.111,229.246 327.333 C 230.970 324.828,228.766 321.896,224.547 321.081 C 223.857 320.948,222.867 320.752,222.347 320.647 C 221.826 320.542,220.556 320.692,219.524 320.980 M108.000 334.843 C 108.000 343.883,108.044 344.465,108.700 344.161 C 109.840 343.633,115.243 343.483,115.727 343.967 C 117.080 345.320,117.200 344.575,117.200 334.800 L 117.200 325.200 112.600 325.200 L 108.000 325.200 108.000 334.843 M164.000 334.800 C 164.000 344.575,164.120 345.320,165.473 343.967 C 165.867 343.573,170.373 343.624,172.600 344.048 C 173.379 344.196,173.403 343.956,173.507 334.700 L 173.614 325.200 168.807 325.200 L 164.000 325.200 164.000 334.800 M110.600 349.286 C 106.995 351.368,107.372 355.798,111.273 357.209 C 113.789 358.118,116.800 355.934,116.800 353.200 C 116.800 350.194,113.087 347.850,110.600 349.286 M166.705 349.426 C 164.764 350.480,163.887 353.094,164.863 354.918 C 166.836 358.604,171.384 358.265,172.809 354.327 C 174.083 350.803,170.085 347.592,166.705 349.426 " stroke="none" fill="#e4ebf5" fill-rule="evenodd"></path></g></svg>