<svg width="40" height="40" viewBox="0 0 40 40" fill="none" xmlns="http://www.w3.org/2000/svg">
<g clip-path="url(#clip0_107_153)">
<path d="M18.2109 0.0781241C14.3202 0.453124 10.6249 1.9375 7.55461 4.35156C6.71867 5 4.72648 7.03906 4.08586 7.89062C1.57023 11.25 0.203045 15.0781 0.0311703 19.2578C-0.164142 23.7969 1.28117 28.375 4.08586 32.1016C4.81242 33.0625 6.31242 34.6094 7.30461 35.4297C13.3749 40.4219 21.828 41.3984 28.8202 37.9219C30.8437 36.9141 32.2421 35.9375 33.8124 34.4141C35.5859 32.7109 36.828 31.0078 37.8905 28.8672C38.6171 27.3906 38.9765 26.4453 39.3359 25.0469C40.2265 21.5234 40.203 18.1094 39.2577 14.6484C38.578 12.1875 37.289 9.64063 35.6484 7.55469C34.9999 6.71875 32.9609 4.72656 32.1015 4.08594C29.3671 2.03125 26.2499 0.718749 22.9452 0.226562C21.7499 0.0468741 19.3202 -0.0234385 18.2109 0.0781241ZM20.6249 10.1719C20.7655 10.2734 20.9609 10.4531 21.0468 10.5703C21.2109 10.7891 21.2109 10.8203 21.2343 18.2656L21.2499 25.7344L23.7734 23.2266C26.4921 20.5156 26.4687 20.5313 27.164 20.6641C27.5546 20.7344 28.0155 21.2031 28.0859 21.5938C28.2187 22.2813 28.2499 22.2422 24.3124 26.1875C20.2968 30.2031 20.4062 30.1094 19.664 29.9219C19.3749 29.8438 18.914 29.4063 15.6484 26.1484C11.7343 22.2266 11.7968 22.2969 11.914 21.6719C11.9687 21.3672 12.3359 20.9063 12.664 20.7344C12.9452 20.5938 13.3827 20.5938 13.6562 20.7344C13.7734 20.7969 14.9609 21.9453 16.289 23.2734L18.7109 25.7031L18.7499 18.25C18.789 10.8359 18.789 10.7891 18.953 10.5703C19.2265 10.1953 19.5937 10 19.9999 10C20.2499 10 20.4452 10.0547 20.6249 10.1719Z" fill="#008000"/>
</g>
<defs>
<clipPath id="clip0_107_153">
<rect width="40" height="40" fill="white"/>
</clipPath>
</defs>
</svg>
