<svg width="70" height="70" viewBox="0 0 70 70" fill="none" xmlns="http://www.w3.org/2000/svg">
<g clip-path="url(#clip0_107_153)">
<path d="M31.8692 0.136717C25.0606 0.792967 18.5939 3.39062 13.2208 7.61523C11.7579 8.75 8.27159 12.3184 7.15049 13.8086C2.74815 19.6875 0.355573 26.3867 0.0547921 33.7012C-0.287005 41.6445 2.24229 49.6563 7.15049 56.1777C8.42198 57.8594 11.047 60.5664 12.7833 62.002C23.4064 70.7383 38.1993 72.4473 50.4356 66.3633C53.9767 64.5996 56.4239 62.8906 59.172 60.2246C62.2755 57.2441 64.4493 54.2637 66.3087 50.5176C67.5802 47.9336 68.2091 46.2793 68.838 43.832C70.3966 37.666 70.3556 31.6914 68.7013 25.6348C67.5118 21.3281 65.256 16.8711 62.3849 13.2207C61.2501 11.7578 57.6817 8.27148 56.1778 7.15039C51.3927 3.55469 45.9376 1.25781 40.1544 0.396482C38.0626 0.0820294 33.8106 -0.0410175 31.8692 0.136717ZM36.0939 17.8008C36.3399 17.9785 36.6817 18.293 36.8321 18.498C37.1192 18.8809 37.1192 18.9355 37.1603 31.9648L37.1876 45.0352L41.6036 40.6465C46.3614 35.9023 46.3204 35.9297 47.5372 36.1621C48.2208 36.2852 49.0274 37.1055 49.1505 37.7891C49.3829 38.9922 49.4376 38.9238 42.547 45.8281C35.5196 52.8555 35.711 52.6914 34.4122 52.3633C33.9064 52.2266 33.0997 51.4609 27.3849 45.7598C20.5353 38.8965 20.6446 39.0195 20.8497 37.9258C20.9454 37.3926 21.588 36.5859 22.1622 36.2852C22.6544 36.0391 23.42 36.0391 23.8985 36.2852C24.1036 36.3945 26.1817 38.4043 28.506 40.7285L32.7442 44.9805L32.8126 31.9375C32.881 18.9629 32.881 18.8809 33.1681 18.498C33.6466 17.8418 34.2892 17.5 35.0001 17.5C35.4376 17.5 35.7794 17.5957 36.0939 17.8008Z" fill="#008000"/>
</g>
<defs>
<clipPath id="clip0_107_153">
<rect width="70" height="70" fill="white"/>
</clipPath>
</defs>
</svg>
