<svg width="40" height="40" viewBox="0 0 40 40" fill="none" xmlns="http://www.w3.org/2000/svg">
<g clip-path="url(#clip0_107_162)">
<path d="M17.4355 -1.06651C13.5448 -0.691509 9.84953 0.792866 6.77922 3.20693C5.94328 3.85537 3.95109 5.89443 3.31047 6.74599C0.794842 10.1054 -0.572345 13.9335 -0.74422 18.1132C-0.939533 22.6522 0.50578 27.2304 3.31047 30.9569C4.03703 31.9179 5.53703 33.4647 6.52922 34.2851C12.5995 39.2772 21.0527 40.2538 28.0448 36.7772C30.0683 35.7694 31.4667 34.7929 33.037 33.2694C34.8105 31.5663 36.0527 29.8632 37.1152 27.7226C37.8417 26.246 38.2011 25.3007 38.5605 23.9022C39.4511 20.3788 39.4277 16.9647 38.4823 13.5038C37.8027 11.0429 36.5136 8.49599 34.873 6.41005C34.2245 5.57412 32.1855 3.58193 31.3261 2.9413C28.5917 0.886616 25.4745 -0.425884 22.1698 -0.918072C20.9745 -1.09776 18.5448 -1.16807 17.4355 -1.06651ZM19.8495 9.02724C19.9902 9.1288 20.1855 9.30849 20.2714 9.42568C20.4355 9.64443 20.4355 9.67568 20.4589 17.121L20.4745 24.5897L22.998 22.0819C25.7167 19.371 25.6933 19.3866 26.3886 19.5194C26.7792 19.5897 27.2402 20.0585 27.3105 20.4491C27.4433 21.1366 27.4745 21.0976 23.537 25.0429C19.5214 29.0585 19.6308 28.9647 18.8886 28.7772C18.5995 28.6991 18.1386 28.2616 14.873 25.0038C10.9589 21.0819 11.0214 21.1522 11.1386 20.5272C11.1933 20.2226 11.5605 19.7616 11.8886 19.5897C12.1698 19.4491 12.6073 19.4491 12.8808 19.5897C12.998 19.6522 14.1855 20.8007 15.5136 22.1288L17.9355 24.5585L17.9745 17.1054C18.0136 9.6913 18.0136 9.64443 18.1777 9.42568C18.4511 9.05068 18.8183 8.85537 19.2245 8.85537C19.4745 8.85537 19.6698 8.91005 19.8495 9.02724Z" fill="#361999"/>
</g>
<defs>
<clipPath id="clip0_107_162">
<rect width="40" height="40" fill="white"/>
</clipPath>
</defs>
</svg>
