<svg width="40" height="40" viewBox="0 0 40 40" fill="none" xmlns="http://www.w3.org/2000/svg">
<g clip-path="url(#clip0_107_169)">
<path d="M18.2109 0.0781136C14.3202 0.453114 10.6249 1.93749 7.55461 4.35155C6.71867 4.99999 4.72648 7.03905 4.08586 7.89061C1.57023 11.25 0.203045 15.0781 0.0311703 19.2578C-0.164142 23.7969 1.28117 28.375 4.08586 32.1016C4.81242 33.0625 6.31242 34.6094 7.30461 35.4297C13.3749 40.4219 21.828 41.3984 28.8202 37.9219C30.8437 36.9141 32.2421 35.9375 33.8124 34.4141C35.5859 32.7109 36.828 31.0078 37.8905 28.8672C38.6171 27.3906 38.9765 26.4453 39.3359 25.0469C40.2265 21.5234 40.203 18.1094 39.2577 14.6484C38.578 12.1875 37.289 9.64061 35.6484 7.55468C34.9999 6.71874 32.9609 4.72655 32.1015 4.08593C29.3671 2.03124 26.2499 0.718739 22.9452 0.226551C21.7499 0.0468636 19.3202 -0.0234489 18.2109 0.0781136ZM20.6249 10.1953C20.7343 10.2578 22.4218 11.9141 24.3905 13.8828C28.2421 17.75 28.2187 17.7187 28.0859 18.4062C28.0155 18.7969 27.5546 19.2656 27.164 19.3359C26.4687 19.4687 26.4921 19.4844 23.7734 16.7734L21.2499 14.2656L21.2343 21.7344C21.2109 29.1797 21.2109 29.2109 21.0468 29.4297C20.4765 30.1953 19.5234 30.1953 18.953 29.4297C18.789 29.2109 18.789 29.1641 18.7499 21.75L18.7109 14.2969L16.289 16.7266C14.9609 18.0547 13.7734 19.2031 13.6562 19.2656C13.3827 19.4062 12.9452 19.4062 12.664 19.2656C12.3515 19.1016 11.9765 18.6484 11.914 18.3594C11.7734 17.7187 11.6952 17.8047 15.6093 13.8828C18.4452 11.0469 19.328 10.2031 19.5702 10.1172C19.9062 9.99218 20.2968 10.0234 20.6249 10.1953Z" fill="#008000"/>
</g>
<defs>
<clipPath id="clip0_107_169">
<rect width="40" height="40" fill="white"/>
</clipPath>
</defs>
</svg>
